<svg width="96" height="21" viewBox="0 0 96 21" fill="none" xmlns="http://www.w3.org/2000/svg">
<path d="M0.296 20V0.776H2.942L6.479 10.955H6.533L10.043 0.776H12.716V20H9.962V8.309H9.908L7.181 16.571H5.804L3.104 8.309H3.05V20H0.296ZM15.1369 20V17.246H17.8909V20H15.1369ZM15.1369 13.871V11.117H17.8909V13.871H15.1369Z" fill="#FFD12D"/>
<path d="M29.0567 14.519V15.707C29.0567 16.913 28.6247 17.957 27.7607 18.839C26.9147 19.721 25.8887 20.162 24.6827 20.162C23.4407 20.162 22.4237 19.847 21.6317 19.217C20.6417 18.425 20.1467 17.228 20.1467 15.626V5.042C20.1467 3.764 20.5607 2.711 21.3887 1.883C22.2347 1.037 23.3147 0.613999 24.6287 0.613999C25.9067 0.613999 26.9597 1.046 27.7877 1.91C28.6337 2.774 29.0567 3.872 29.0567 5.204V6.284H26.3027V5.366C26.3027 4.808 26.1407 4.34 25.8167 3.962C25.5107 3.566 25.1057 3.368 24.6017 3.368C23.4677 3.368 22.9007 4.115 22.9007 5.609V15.437C22.9007 16.751 23.4587 17.408 24.5747 17.408C25.7267 17.408 26.3027 16.76 26.3027 15.464V14.519H29.0567ZM31.1418 15.464V5.312C31.1418 3.836 31.6278 2.657 32.5998 1.775C33.4818 1.001 34.5348 0.613999 35.7588 0.613999C36.9828 0.613999 38.0358 1.001 38.9178 1.775C39.8898 2.657 40.3758 3.836 40.3758 5.312V15.464C40.3758 16.94 39.8898 18.11 38.9178 18.974C38.0358 19.766 36.9828 20.162 35.7588 20.162C34.5348 20.162 33.4818 19.766 32.5998 18.974C31.6278 18.11 31.1418 16.94 31.1418 15.464ZM33.8958 5.312V15.464C33.8958 16.094 34.0848 16.58 34.4628 16.922C34.7868 17.246 35.2188 17.408 35.7588 17.408C36.2988 17.408 36.7398 17.246 37.0818 16.922C37.4418 16.58 37.6218 16.094 37.6218 15.464V5.312C37.6218 4.682 37.4418 4.205 37.0818 3.881C36.7398 3.539 36.2988 3.368 35.7588 3.368C35.2188 3.368 34.7868 3.53 34.4628 3.854C34.0848 4.196 33.8958 4.682 33.8958 5.312ZM42.6919 20V0.776H45.3379L49.4959 12.359H49.5499V0.776H52.3039V20H49.7119L45.4999 8.444H45.4459V20H42.6919ZM54.689 20V0.776H57.335L61.493 12.359H61.547V0.776H64.301V20H61.709L57.497 8.444H57.443V20H54.689ZM66.794 20V0.776H75.002V3.368H69.548V9.011H74.3V11.603H69.548V17.246H75.002V20H66.794ZM85.5352 14.519V15.707C85.5352 16.913 85.1032 17.957 84.2392 18.839C83.3932 19.721 82.3672 20.162 81.1612 20.162C79.9192 20.162 78.9022 19.847 78.1102 19.217C77.1202 18.425 76.6252 17.228 76.6252 15.626V5.042C76.6252 3.764 77.0392 2.711 77.8672 1.883C78.7132 1.037 79.7932 0.613999 81.1072 0.613999C82.3852 0.613999 83.4382 1.046 84.2662 1.91C85.1122 2.774 85.5352 3.872 85.5352 5.204V6.284H82.7812V5.366C82.7812 4.808 82.6192 4.34 82.2952 3.962C81.9892 3.566 81.5842 3.368 81.0802 3.368C79.9462 3.368 79.3792 4.115 79.3792 5.609V15.437C79.3792 16.751 79.9372 17.408 81.0532 17.408C82.2052 17.408 82.7812 16.76 82.7812 15.464V14.519H85.5352ZM89.5913 20V3.368H86.4053V0.776H95.5313V3.368H92.3453V20H89.5913Z" fill="white"/>
</svg>
