<svg width="30" height="30" viewBox="0 0 30 30" fill="none" xmlns="http://www.w3.org/2000/svg">
<path d="M22.9208 17.7671H12.0915L18.0745 14.3728C18.6997 14.0168 18.9259 13.2086 18.5779 12.571L17.6861 10.9434C17.3357 10.3058 16.5411 10.0773 15.9159 10.4328L13.4269 11.8446C13.7193 11.2469 13.9015 10.6606 13.9689 10.091C14.0814 9.14272 13.8698 8.28743 13.3577 7.61645C12.5251 6.52617 11.072 6.16413 9.82336 6.73492C9.60188 6.83631 9.50344 7.10113 9.60246 7.32658C9.70207 7.55203 9.96223 7.65223 10.1837 7.55143C11.0614 7.15003 12.081 7.40233 12.6634 8.16576C13.5001 9.26141 13.179 10.9756 11.8085 12.7625L11.2777 13.0637L10.8939 12.3635C10.7954 12.1833 10.6671 12.0259 10.5165 11.8959C10.6097 11.3269 10.8698 10.5909 11.1575 10.1101C11.2835 9.899 11.2179 9.62404 11.0105 9.49521C10.8031 9.36698 10.5329 9.43378 10.4064 9.64492C10.097 10.1626 9.82864 10.8795 9.69328 11.5141C9.32532 11.4545 8.95149 11.5201 8.62278 11.7068L8.47102 11.7933C8.41067 10.5026 8.60754 9.42245 9.05051 8.64291C9.1718 8.42879 9.10032 8.15562 8.89055 8.03156C8.68078 7.9081 8.41184 7.98087 8.28996 8.19439C7.70227 9.22801 7.47844 10.5998 7.622 12.2746L7.09114 12.5758C4.84992 10.8789 2.65617 10.5324 1.18371 11.6561C0.118479 12.4702 -0.283474 13.91 0.207542 15.1577C0.708518 16.4311 1.96067 17.2065 3.68625 17.3699L1.13801 18.8151C0.512815 19.17 0.287229 19.9769 0.635862 20.6151L1.52766 22.244C1.76555 22.6776 2.2091 22.9221 2.66614 22.9221C2.88 22.9221 3.09739 22.8684 3.29719 22.7551C3.29719 22.7551 3.29778 22.7551 3.29778 22.7545L6.16946 21.1257V28.4117C6.16946 29.2878 6.86965 30 7.73039 30H22.4263C23.287 30 23.9872 29.2873 23.9872 28.4117V18.8527C23.9878 18.2538 23.5091 17.7671 22.9208 17.7671ZM8.2759 18.9075L6.97336 16.5301L10.939 14.281L12.2409 16.6584L10.2581 17.7832C10.1872 17.8023 10.1239 17.8393 10.0718 17.8888L8.2759 18.9075ZM16.3448 11.2147C16.4099 11.1777 16.4802 11.1605 16.5493 11.1605C16.6976 11.1605 16.8417 11.2398 16.9191 11.3805L17.8103 13.007C17.9234 13.214 17.8495 13.4764 17.6462 13.5921L13.0085 16.223L11.7066 13.8456L16.3448 11.2147ZM9.05227 12.4881C9.17004 12.4213 9.30071 12.3873 9.43313 12.3873C9.50637 12.3873 9.57961 12.3975 9.65227 12.4183C9.85617 12.4774 10.0243 12.6122 10.1269 12.7995L10.5107 13.4997L6.54504 15.7488L6.16067 15.0468C6.08508 14.9084 6.05227 14.754 6.06399 14.5989C6.06457 14.5947 6.06516 14.5905 6.06516 14.5864C6.06985 14.5369 6.07864 14.4874 6.09211 14.4384C6.15012 14.2315 6.28254 14.0603 6.46653 13.9565L9.05227 12.4881ZM1.02375 14.8255C0.680393 13.9524 0.963401 12.9438 1.71164 12.3724C2.78977 11.5493 4.45442 11.8112 6.24328 13.0577L6.03938 13.1734C5.71594 13.3565 5.4675 13.6374 5.32278 13.9786C4.7427 13.7925 4.22121 13.6905 3.47473 13.607C3.23332 13.5802 3.01653 13.7573 2.99016 14.0031C2.96379 14.2488 3.13782 14.4695 3.37922 14.4963C4.20012 14.5876 4.68352 14.7015 5.1968 14.8768C5.22375 15.0868 5.28938 15.2914 5.39367 15.4816L5.77805 16.1836L5.29817 16.4556C3.11731 16.6989 1.5218 16.093 1.02375 14.8255ZM2.87004 21.9738C2.66965 22.0865 2.40598 22.0114 2.29524 21.8086L1.40403 20.1803C1.29094 19.9734 1.36418 19.7115 1.56633 19.597L5.63098 17.2912C5.64387 17.2846 5.65617 17.2775 5.66848 17.2697L6.20578 16.9649L7.50832 19.3423L6.40266 19.9698C6.40032 19.971 6.39797 19.9722 6.39563 19.9739L2.87004 21.9738ZM7.04836 28.4123V20.6282L10.5148 18.6618H12.5409V22.6233C12.5409 22.8702 12.7378 23.0706 12.9804 23.0706C13.223 23.0706 13.4198 22.8702 13.4198 22.6233V18.6618H16.7374V29.1065H13.4198V24.7424C13.4198 24.4955 13.223 24.2951 12.9804 24.2951C12.7378 24.2951 12.5409 24.4955 12.5409 24.7424V29.1065H7.73039C7.35422 29.1065 7.04836 28.7952 7.04836 28.4123ZM23.1089 28.4123C23.1089 28.7952 22.8031 29.1059 22.4269 29.1059H17.6163V18.6618H22.9208C23.0228 18.6618 23.1083 18.7495 23.1083 18.8527L23.1089 28.4123Z" fill="white"/>
<path d="M21.3093 7.74534C21.3152 7.80021 21.873 13.2701 19.9915 15.3457C19.8269 15.5276 19.838 15.8103 20.0167 15.9779C20.1011 16.0572 20.2083 16.0966 20.3144 16.0966C20.4327 16.0966 20.5511 16.0483 20.6378 15.9523C22.787 13.5808 22.2093 7.88968 22.1835 7.64872C22.1571 7.40299 21.9409 7.22585 21.6995 7.25209C21.4575 7.27893 21.2829 7.49961 21.3093 7.74534Z" fill="white"/>
<path d="M25.3288 7.08014C24.5853 8.23901 24.3492 9.27322 24.3392 9.31676C24.2853 9.55712 24.4335 9.79629 24.6697 9.85116C24.7025 9.85892 24.7353 9.8625 24.7681 9.8625C24.9685 9.8625 25.149 9.72233 25.1958 9.51537C25.1982 9.50583 25.4156 8.57003 26.0812 7.54297C26.9572 6.19085 28.1618 5.32066 29.6607 4.95624C29.8968 4.89898 30.0427 4.65742 29.9859 4.41706C29.9296 4.1767 29.6923 4.02878 29.4562 4.08604C27.747 4.50175 26.3191 5.53716 25.3288 7.08014Z" fill="white"/>
<path d="M16.3154 4.62298C16.3171 4.63372 16.3189 4.65996 16.3148 4.71245L16.2111 6.01386C16.1964 6.15164 16.1671 6.46059 16.415 6.65145C16.6669 6.84529 16.9628 6.72362 17.0935 6.66994L18.2677 6.17192C18.2912 6.16417 18.3486 6.16417 18.3697 6.17073L19.5533 6.67173C19.6277 6.70215 19.7613 6.75702 19.9095 6.75702C20.0126 6.75702 20.1228 6.73078 20.2259 6.65145C20.4732 6.46119 20.4439 6.15224 20.4292 6.01386L20.3279 4.71424C20.3238 4.66175 20.3255 4.63551 20.3267 4.62358L21.1798 3.57684C21.2783 3.46292 21.4728 3.2321 21.3814 2.93329C21.2882 2.6297 20.9853 2.55336 20.8564 2.52055L19.5591 2.19311L18.8771 1.03424C18.8144 0.926289 18.6474 0.640597 18.3222 0.639404C18.3216 0.639404 18.321 0.639404 18.3205 0.639404C17.9958 0.639404 17.8277 0.924499 17.7644 1.03245C17.7644 1.03245 17.7644 1.03245 17.7644 1.03305L17.0882 2.18297L17.0818 2.19371L15.7839 2.52115C15.655 2.55395 15.3527 2.63089 15.2601 2.93388C15.1687 3.2327 15.3697 3.47127 15.4611 3.57684L16.3154 4.62298ZM17.3355 3.05138C17.6285 2.97742 17.7339 2.8301 17.8253 2.67205L18.321 1.82869L18.8214 2.67921C18.9117 2.83368 19.0171 2.97862 19.306 3.05138L20.2693 3.29473L19.6488 4.05577C19.4449 4.30091 19.4367 4.57348 19.4525 4.78462L19.5234 5.69119L18.7101 5.34646C18.4792 5.24685 18.1669 5.24685 17.9337 5.34586L17.1187 5.69179L17.1908 4.78342C17.2048 4.59197 17.2007 4.30866 16.9968 4.05935L16.3728 3.29532L17.3355 3.05138Z" fill="white"/>
<path d="M29.7735 13.861C29.866 13.7548 30.0676 13.5168 29.9768 13.218C29.8842 12.9139 29.5801 12.8369 29.4506 12.8041L28.1551 12.4773L27.4713 11.3154C27.408 11.2081 27.2399 10.9224 26.9153 10.9224C26.9147 10.9224 26.9141 10.9224 26.9135 10.9224C26.5889 10.923 26.4225 11.2075 26.3592 11.316L25.6807 12.4659L25.6742 12.4773L24.3787 12.8041C24.2492 12.8369 23.9451 12.9139 23.8526 13.218C23.7617 13.5168 23.9633 13.7548 24.0559 13.861L24.9084 14.9065C24.9096 14.9185 24.9114 14.9441 24.9073 14.9954L24.8035 16.2968C24.7901 16.4346 24.7614 16.7459 25.0098 16.9356C25.2612 17.1277 25.5559 17.0066 25.686 16.9529L26.8608 16.4549C26.8848 16.4471 26.9434 16.4471 26.9639 16.4537L28.1463 16.9547C28.2207 16.9851 28.3543 17.04 28.5026 17.04C28.6051 17.04 28.7153 17.0137 28.8184 16.935C29.0668 16.7453 29.0387 16.4334 29.0246 16.2962L28.9209 14.9972C28.9168 14.9447 28.9186 14.9185 28.9198 14.9065L29.7735 13.861ZM28.2424 14.3387C28.0385 14.5839 28.0303 14.8564 28.0461 15.0682L28.1182 15.9742L27.3032 15.6282C27.0711 15.5298 26.7594 15.5298 26.5274 15.6282L25.7123 15.9742L25.7844 15.0658C25.8002 14.8564 25.792 14.5839 25.5905 14.3423L24.9676 13.5777L25.9315 13.3343C26.2221 13.2604 26.3276 13.1131 26.4178 12.9556L26.9153 12.1117L27.394 12.9252L27.4116 12.9556C27.5018 13.1131 27.6073 13.2604 27.8991 13.3343L28.8623 13.5777L28.2424 14.3387Z" fill="white"/>
<path d="M25.3122 4.47265C26.5245 4.47265 27.5106 3.47005 27.5106 2.23722C27.5106 1.0038 26.5245 0 25.3122 0C24.0999 0 23.1138 1.0038 23.1138 2.23722C23.1138 3.47005 24.0999 4.47265 25.3122 4.47265ZM25.3122 0.89465C26.0399 0.89465 26.6317 1.49705 26.6317 2.23722C26.6317 2.9768 26.0399 3.578 25.3122 3.578C24.5845 3.578 23.9927 2.9768 23.9927 2.23722C23.9927 1.49705 24.5851 0.89465 25.3122 0.89465Z" fill="white"/>
</svg>
