<svg width="16" height="14" viewBox="0 0 16 14" fill="none" xmlns="http://www.w3.org/2000/svg">
<path d="M2.81581 2.11363C3.4311 2.10862 3.9986 1.78183 4.31102 1.25289C4.83922 0.469809 5.7228 0.000155643 6.66847 0H9.33153C10.3115 0.0080557 11.2202 0.513 11.7435 1.34001C12.0607 1.82577 12.6035 2.11718 13.1842 2.11367C13.9305 2.11535 14.6456 2.41219 15.1734 2.93885C15.701 3.46567 15.9983 4.1796 16 4.92451V11.1891C15.9982 11.9341 15.701 12.648 15.1734 13.1748C14.6456 13.7015 13.9304 13.9982 13.1842 14H2.81577C2.06952 13.9982 1.35437 13.7015 0.826632 13.1748C0.299049 12.648 0.00183201 11.9341 0 11.1891V4.92451C0.00167465 4.17956 0.299046 3.46567 0.826632 2.93885C1.35437 2.4122 2.06956 2.11535 2.81577 2.11367L2.81581 2.11363ZM8.00004 11.2219C8.90888 11.2219 9.78061 10.8615 10.4233 10.2199C11.066 9.57835 11.4272 8.70816 11.4272 7.80076C11.4272 6.89351 11.066 6.02331 10.4233 5.38175C9.78061 4.74019 8.90888 4.3798 8.00004 4.3798C7.0912 4.3798 6.21947 4.74018 5.57678 5.38175C4.9341 6.02331 4.57292 6.89351 4.57292 7.80076C4.57276 8.70816 4.93363 9.57851 5.57647 10.2202C6.21916 10.8618 7.09101 11.2222 8.00004 11.2219ZM3.01227 5.77436C3.17291 5.93472 3.39079 6.02485 3.61797 6.02485C3.84529 6.02485 4.06319 5.93472 4.22382 5.77436C4.38445 5.61401 4.4746 5.3965 4.4746 5.16973C4.4746 4.94295 4.38446 4.72544 4.22382 4.56509C4.06318 4.40458 3.8453 4.3146 3.61797 4.3146C3.39079 4.3146 3.1729 4.40458 3.01227 4.56509C2.85483 4.72712 2.76667 4.94386 2.76667 5.16973C2.76667 5.39544 2.85483 5.61234 3.01227 5.77436Z" fill="url(#paint0_linear_1396_2256)"/>
<defs>
<linearGradient id="paint0_linear_1396_2256" x1="8" y1="0" x2="8" y2="14" gradientUnits="userSpaceOnUse">
<stop offset="0.21875" stop-color="white"/>
<stop offset="0.817708" stop-color="#FFDEB3"/>
</linearGradient>
</defs>
</svg>
