<svg width="36" height="33" viewBox="0 0 36 33" fill="none" xmlns="http://www.w3.org/2000/svg">
<g clip-path="url(#clip0_66_2)">
<path d="M10.6364 16.4991C10.6364 20.5952 13.9377 23.9241 18 23.9241C22.0623 23.9241 25.3636 20.5952 25.3636 16.4991C25.3636 12.4029 22.0623 9.07407 18 9.07407C13.9377 9.07407 10.6364 12.4029 10.6364 16.4991ZM18 10.7241C21.1582 10.7241 23.7273 13.3146 23.7273 16.4991C23.7273 19.6836 21.1582 22.2741 18 22.2741C14.8418 22.2741 12.2727 19.6836 12.2727 16.4991C12.2727 13.3146 14.8418 10.7241 18 10.7241ZM33.5455 3.29907H18C17.55 3.29907 17.1818 3.67032 17.1818 4.12407C17.1818 4.57782 17.55 4.94907 18 4.94907H33.5455C33.9955 4.94907 34.3636 5.32032 34.3636 5.77407V27.2241C34.3636 27.6778 33.9955 28.0491 33.5455 28.0491H25.7032L27.5809 26.1557C27.9 25.8339 27.9 25.3101 27.5809 24.9883C27.2618 24.6666 26.7423 24.6666 26.4232 24.9883L23.1505 28.2883C22.8314 28.6101 22.8314 29.1339 23.1505 29.4557L26.4232 32.7557C26.5827 32.9166 26.7914 32.9991 27 32.9991C27.2086 32.9991 27.4173 32.9207 27.5768 32.7557C27.8959 32.4339 27.8959 31.9101 27.5768 31.5883L25.7032 29.6991H33.5455C34.8995 29.6991 36 28.5894 36 27.2241V5.77407C36 4.4087 34.8995 3.29907 33.5455 3.29907ZM18 28.0491H2.45455C2.00455 28.0491 1.63636 27.6778 1.63636 27.2241V5.77407C1.63636 5.32032 2.00455 4.94907 2.45455 4.94907H10.2968L8.41909 6.84245C8.1 7.1642 8.1 7.68807 8.41909 8.00982C8.58273 8.16657 8.79136 8.24907 9 8.24907C9.20864 8.24907 9.41727 8.1707 9.57682 8.0057L12.8495 4.7057C13.1686 4.38395 13.1686 3.86007 12.8495 3.53832L9.57682 0.238322C9.25773 -0.0834282 8.73818 -0.0834282 8.41909 0.238322C8.1 0.560072 8.1 1.08395 8.41909 1.4057L10.2968 3.29907H2.45455C1.10045 3.29907 0 4.4087 0 5.77407V27.2241C0 28.5894 1.10045 29.6991 2.45455 29.6991H18C18.45 29.6991 18.8182 29.3319 18.8182 28.8741C18.8182 28.4162 18.45 28.0491 18 28.0491Z" fill="#FFD12D"/>
</g>
<defs>
<clipPath id="clip0_66_2">
<rect width="36" height="33" fill="white"/>
</clipPath>
</defs>
</svg>
