<svg width="18" height="18" viewBox="0 0 18 18" fill="none" xmlns="http://www.w3.org/2000/svg">
<path d="M0.465899 1.3682H3.36829C3.34584 1.07339 3.33235 0.776312 3.33235 0.476851C3.33235 0.214332 3.54155 0 3.79817 0L14.2019 0.000160661C14.4583 0.000160661 14.6677 0.21432 14.6677 0.477012C14.6677 0.776481 14.6542 1.07581 14.6318 1.36836H17.5342C17.7906 1.36836 18 1.58252 18 1.84521C18 6.33652 14.8253 10.1508 10.5526 10.9105C10.6763 11.9607 11.2117 12.9212 12.0352 13.5707H14.202C14.4585 13.5707 14.6679 13.7849 14.6679 14.0476V17.5231C14.6679 17.7857 14.4587 18 14.202 18H3.79791C3.54146 18 3.33208 17.7858 3.33208 17.5231V14.0498C3.33208 13.7873 3.54129 13.573 3.79791 13.573H5.96472C6.78821 12.9234 7.3237 11.9608 7.44737 10.9127C3.17442 10.1527 -5.34058e-05 6.33631 -5.34058e-05 1.84501C-5.34058e-05 1.58249 0.209154 1.36816 0.465773 1.36816L0.465899 1.3682ZM17.0551 2.3219H14.5171C14.0356 5.39437 12.4628 8.04749 11.1602 9.79836C14.4496 8.86539 16.8546 5.86892 17.0551 2.3219H17.0551ZM4.26394 14.5266V17.0486H13.7363V14.5266H4.26394ZM8.4059 10.4705V10.4797C8.39696 11.6198 7.99645 12.7092 7.29895 13.5729L10.7009 13.5731C10.0035 12.7116 9.60514 11.6199 9.59397 10.4799V10.4707C9.59397 10.4591 9.59177 10.4477 9.59177 10.4384C9.59177 10.4154 9.60072 10.3947 9.60527 10.374C9.60982 10.3394 9.61202 10.3071 9.62552 10.275C9.63682 10.2427 9.65471 10.2151 9.67276 10.1875C9.68406 10.169 9.69081 10.146 9.7043 10.1299C11.1509 8.39079 13.5449 4.94273 13.7249 0.953614H4.27503C4.45505 4.94281 6.84892 8.39305 8.29566 10.1299C8.31135 10.1484 8.3159 10.1691 8.3272 10.1875C8.34525 10.2151 8.36315 10.2427 8.37445 10.275C8.38575 10.3073 8.39014 10.3394 8.39469 10.374C8.39689 10.397 8.40819 10.4154 8.40819 10.4384C8.40819 10.45 8.40584 10.4615 8.40584 10.4707L8.4059 10.4705ZM6.83988 9.79799C5.53706 8.04757 3.96449 5.39429 3.48295 2.32153L0.944981 2.3217C1.14524 5.86859 3.55045 8.86493 6.83992 9.79774L6.83988 9.79799Z" fill="#FFD12D"/>
</svg>
