<svg width="20" height="20" viewBox="0 0 20 20" fill="none" xmlns="http://www.w3.org/2000/svg">
<path d="M19.8223 18.4625L12.8983 8.59562C12.8386 8.51043 12.7662 8.43676 12.6849 8.37582V6.25H17.5677C17.7805 6.25 17.9766 6.13461 18.0799 5.94863C18.1832 5.76266 18.1776 5.5352 18.0652 5.35453L17.0425 3.71094L18.0652 2.06734C18.1776 1.88668 18.1832 1.65926 18.0799 1.47324C17.9765 1.28723 17.7805 1.17188 17.5677 1.17188H12.6849V0.585938C12.6849 0.262344 12.4225 0 12.0989 0C11.7753 0 11.513 0.262344 11.513 0.585938V8.37582C11.4318 8.43676 11.3593 8.51043 11.2996 8.59562L8.04059 13.2398L6.7841 11.4971C6.60106 11.2432 6.30492 11.0916 5.99196 11.0916C5.67899 11.0916 5.38285 11.2432 5.19981 11.4971L0.185086 18.4523C-0.0303431 18.7511 -0.0599134 19.1405 0.107938 19.4684C0.275789 19.7963 0.608875 20 0.977234 20H19.0229C19.3886 20 19.7206 19.7984 19.8894 19.4739C20.0581 19.1494 20.0324 18.7618 19.8223 18.4625ZM5.55071 18.8281L9.31988 13.457L10.2856 14.3568C10.5107 14.5664 10.8595 14.5665 11.0845 14.3568L12.0988 13.4117L13.1134 14.3568C13.2259 14.4616 13.3693 14.5141 13.5128 14.5141C13.6562 14.5141 13.7997 14.4616 13.9122 14.3568L14.8781 13.457L18.6472 18.8281H5.55071ZM4.37567 18.4625C4.29696 18.5746 4.24414 18.6991 4.2177 18.8281H1.35884L5.99196 12.4021L7.32801 14.2552L4.37567 18.4625ZM12.0989 9.4966L14.1984 12.4884L13.5127 13.1273L12.4982 12.1821C12.2731 11.9724 11.9243 11.9725 11.6993 12.1821L10.685 13.1272L9.99949 12.4884L12.0989 9.4966ZM16.513 2.34375L15.8549 3.40141C15.737 3.59094 15.737 3.83098 15.8549 4.02051L16.513 5.07812H12.6849V2.34375H16.513Z" fill="#C90D0C"/>
</svg>
