<svg width="30" height="30" viewBox="0 0 30 30" fill="none" xmlns="http://www.w3.org/2000/svg">
<path d="M29.5611 30H21.8498C21.7362 30 21.6272 29.9548 21.5469 29.8745C21.4665 29.7941 21.4214 29.6851 21.4214 29.5714C21.4214 29.4578 21.4665 29.3488 21.5469 29.2684C21.6272 29.188 21.7362 29.1429 21.8498 29.1429H29.1327V12.0088C29.1327 11.8951 29.1778 11.7861 29.2582 11.7057C29.3385 11.6254 29.4475 11.5802 29.5611 11.5802C29.6747 11.5802 29.7837 11.6254 29.864 11.7057C29.9444 11.7861 29.9895 11.8951 29.9895 12.0088V29.5714C29.9895 29.6851 29.9444 29.7941 29.864 29.8745C29.7837 29.9548 29.6747 30 29.5611 30Z" fill="white"/>
<path d="M14.5796 30H13.3368C13.2231 30 13.1141 29.9548 13.0337 29.8744C12.9534 29.7941 12.9082 29.6851 12.9082 29.5714C12.9082 29.4577 12.9534 29.3487 13.0337 29.2684C13.1141 29.188 13.2231 29.1428 13.3368 29.1428H14.5796C14.6933 29.1428 14.8023 29.188 14.8827 29.2684C14.963 29.3487 15.0082 29.4577 15.0082 29.5714C15.0082 29.6851 14.963 29.7941 14.8827 29.8744C14.8023 29.9548 14.6933 30 14.5796 30Z" fill="white"/>
<path d="M10.3379 30H0.428894C0.315274 30 0.206307 29.9548 0.125965 29.8745C0.0456238 29.7941 0.000488281 29.6851 0.000488281 29.5714V12.0088C0.000488281 11.8951 0.0456238 11.7861 0.125965 11.7057C0.206307 11.6254 0.315274 11.5802 0.428894 11.5802C0.542515 11.5802 0.651481 11.6254 0.731823 11.7057C0.812165 11.7861 0.8573 11.8951 0.8573 12.0088V29.1429H10.3379C10.4515 29.1429 10.5605 29.188 10.6409 29.2684C10.7212 29.3488 10.7663 29.4578 10.7663 29.5714C10.7663 29.6851 10.7212 29.7941 10.6409 29.8745C10.5605 29.9548 10.4515 30 10.3379 30Z" fill="white"/>
<path d="M18.8494 30H17.5765C17.4629 30 17.3538 29.9548 17.2735 29.8744C17.1931 29.7941 17.1479 29.6851 17.1479 29.5714C17.1479 29.4577 17.1931 29.3487 17.2735 29.2684C17.3538 29.188 17.4629 29.1428 17.5765 29.1428H18.8494C18.963 29.1428 19.072 29.188 19.1524 29.2684C19.2328 29.3487 19.2779 29.4577 19.2779 29.5714C19.2779 29.6851 19.2328 29.7941 19.1524 29.8744C19.072 29.9548 18.963 30 18.8494 30Z" fill="white"/>
<path d="M19.8441 4.71456C19.7473 4.71456 19.6534 4.68178 19.5776 4.62156L14.995 0.976179L10.411 4.62156C10.367 4.6566 10.3165 4.68261 10.2624 4.69811C10.2083 4.71362 10.1516 4.71831 10.0957 4.71192C10.0398 4.70553 9.98571 4.68819 9.9365 4.66089C9.88729 4.63358 9.84393 4.59684 9.80891 4.55278C9.77389 4.50871 9.74789 4.45817 9.73239 4.40405C9.71689 4.34993 9.7122 4.29329 9.71859 4.23736C9.72497 4.18142 9.74231 4.1273 9.7696 4.07806C9.7969 4.02883 9.83362 3.98546 9.87767 3.95043L14.7268 0.0933324C14.8026 0.0329036 14.8967 0 14.9937 0C15.0907 0 15.1847 0.0329036 15.2606 0.0933324L20.1097 3.95043C20.1793 4.0057 20.2299 4.08123 20.2547 4.16657C20.2794 4.2519 20.2771 4.34283 20.2479 4.42675C20.2187 4.51068 20.1642 4.58346 20.0918 4.63502C20.0195 4.68659 19.9329 4.71438 19.8441 4.71456Z" fill="white"/>
<path d="M0.428397 12.4373C0.3395 12.4373 0.252806 12.4097 0.18033 12.3582C0.107855 12.3067 0.0531877 12.2339 0.0239066 12.1499C-0.00537442 12.0659 -0.00781913 11.9749 0.0169113 11.8895C0.0416416 11.8041 0.0923222 11.7285 0.161928 11.6732L5.0886 7.75609C5.17763 7.6861 5.29074 7.65421 5.4032 7.66739C5.51567 7.68058 5.61834 7.73778 5.68877 7.82647C5.7592 7.91517 5.79167 8.02816 5.77907 8.14073C5.76647 8.2533 5.70983 8.35631 5.62154 8.42723L0.694865 12.343C0.619262 12.4037 0.525324 12.437 0.428397 12.4373Z" fill="white"/>
<path d="M29.5599 12.4373C29.4632 12.4373 29.3692 12.4046 29.2935 12.3444L24.3668 8.42726C24.2842 8.35461 24.2326 8.25295 24.2229 8.14334C24.2131 8.03372 24.2459 7.92456 24.3144 7.83845C24.3829 7.75235 24.4819 7.6959 24.5909 7.68082C24.6998 7.66573 24.8104 7.69315 24.8997 7.75741L29.8264 11.6745C29.8955 11.73 29.9457 11.8055 29.9701 11.8907C29.9945 11.9758 29.992 12.0665 29.9627 12.1502C29.9335 12.2338 29.8791 12.3064 29.807 12.3578C29.7348 12.4092 29.6485 12.437 29.5599 12.4373Z" fill="white"/>
<path d="M14.9941 21.943C13.5175 21.9446 12.0814 21.4596 10.9079 20.563L0.168231 12.3491C0.0822368 12.2786 0.0269735 12.1775 0.0141106 12.0671C0.00124762 11.9566 0.031792 11.8455 0.0992937 11.7572C0.166795 11.6689 0.26597 11.6102 0.375876 11.5937C0.485781 11.5771 0.597814 11.604 0.688316 11.6685L11.4285 19.8798C12.4531 20.661 13.7058 21.084 14.9941 21.084C16.2824 21.084 17.535 20.661 18.5597 19.8798L29.2998 11.6685C29.3443 11.6321 29.3956 11.605 29.4508 11.5888C29.5059 11.5727 29.5637 11.5678 29.6208 11.5744C29.6779 11.5811 29.7331 11.5991 29.783 11.6276C29.833 11.656 29.8767 11.6941 29.9116 11.7398C29.9465 11.7855 29.9718 11.8377 29.9862 11.8934C30.0005 11.9491 30.0034 12.007 29.9949 12.0639C29.9863 12.1207 29.9664 12.1753 29.9364 12.2243C29.9063 12.2733 29.8667 12.3157 29.8199 12.3491L19.0802 20.5608C17.9071 21.4583 16.471 21.9441 14.9941 21.943Z" fill="white"/>
<path d="M18.8494 30H17.5765C17.4629 30 17.3538 29.9548 17.2735 29.8744C17.1931 29.7941 17.1479 29.6851 17.1479 29.5714C17.1479 29.4577 17.1931 29.3487 17.2735 29.2684C17.3538 29.188 17.4629 29.1428 17.5765 29.1428H18.8494C18.963 29.1428 19.072 29.188 19.1524 29.2684C19.2328 29.3487 19.2779 29.4577 19.2779 29.5714C19.2779 29.6851 19.2328 29.7941 19.1524 29.8744C19.072 29.9548 18.963 30 18.8494 30Z" fill="white"/>
<path d="M10.3375 30H0.428501C0.338984 29.9999 0.25174 29.9718 0.179025 29.9195C0.106311 29.8673 0.0517782 29.7936 0.0230876 29.7088C-0.00560309 29.6239 -0.00701043 29.5322 0.0190632 29.4466C0.0451369 29.3609 0.0973816 29.2856 0.168459 29.2311L11.6497 20.4494C11.7402 20.3882 11.8507 20.3639 11.9585 20.3814C12.0663 20.399 12.1634 20.4571 12.2298 20.5438C12.2962 20.6306 12.327 20.7394 12.3159 20.8481C12.3047 20.9568 12.2525 21.0572 12.1698 21.1286L1.69401 29.1428H10.3375C10.4512 29.1428 10.5601 29.188 10.6405 29.2684C10.7208 29.3487 10.7659 29.4577 10.7659 29.5714C10.7659 29.6851 10.7208 29.7941 10.6405 29.8744C10.5601 29.9548 10.4512 30 10.3375 30Z" fill="white"/>
<path d="M14.5796 30H13.3368C13.2231 30 13.1141 29.9548 13.0337 29.8744C12.9534 29.7941 12.9082 29.6851 12.9082 29.5714C12.9082 29.4577 12.9534 29.3487 13.0337 29.2684C13.1141 29.188 13.2231 29.1428 13.3368 29.1428H14.5796C14.6933 29.1428 14.8023 29.188 14.8827 29.2684C14.963 29.3487 15.0082 29.4577 15.0082 29.5714C15.0082 29.6851 14.963 29.7941 14.8827 29.8744C14.8023 29.9548 14.6933 30 14.5796 30Z" fill="white"/>
<path d="M29.5604 30H21.8491C21.7355 30 21.6265 29.9548 21.5462 29.8744C21.4658 29.7941 21.4207 29.6851 21.4207 29.5714C21.4207 29.4577 21.4658 29.3487 21.5462 29.2684C21.6265 29.188 21.7355 29.1428 21.8491 29.1428H28.2949L17.8191 21.1287C17.7744 21.0945 17.7369 21.0518 17.7086 21.0031C17.6804 20.9544 17.6621 20.9006 17.6546 20.8448C17.6472 20.789 17.6508 20.7323 17.6653 20.6779C17.6798 20.6235 17.7048 20.5725 17.739 20.5278C17.7732 20.4831 17.8158 20.4455 17.8645 20.4173C17.9132 20.3891 17.9669 20.3707 18.0227 20.3633C18.0785 20.3558 18.1352 20.3595 18.1895 20.3739C18.2439 20.3884 18.2949 20.4135 18.3396 20.4477L29.8209 29.2294C29.8927 29.2837 29.9456 29.3592 29.9721 29.4452C29.9986 29.5312 29.9974 29.6234 29.9685 29.7087C29.9397 29.794 29.8848 29.868 29.8115 29.9203C29.7383 29.9726 29.6504 30.0004 29.5604 30Z" fill="white"/>
<path d="M24.6344 16.2044C24.5208 16.2044 24.4118 16.1593 24.3315 16.0789C24.2511 15.9985 24.206 15.8895 24.206 15.7759V4.71458H5.78455V15.7759C5.78455 15.8895 5.73941 15.9985 5.65907 16.0789C5.57873 16.1593 5.46976 16.2044 5.35614 16.2044C5.24252 16.2044 5.13355 16.1593 5.05321 16.0789C4.97287 15.9985 4.92773 15.8895 4.92773 15.7759V4.28601C4.92773 4.17235 4.97287 4.06334 5.05321 3.98297C5.13355 3.9026 5.24252 3.85745 5.35614 3.85745H24.6344C24.748 3.85745 24.857 3.9026 24.9373 3.98297C25.0177 4.06334 25.0628 4.17235 25.0628 4.28601V15.7759C25.0628 15.8895 25.0177 15.9985 24.9373 16.0789C24.857 16.1593 24.748 16.2044 24.6344 16.2044Z" fill="white"/>
<path d="M20.9921 8.14309H8.99677C8.88315 8.14309 8.77418 8.09794 8.69384 8.01756C8.61349 7.93719 8.56836 7.82819 8.56836 7.71452C8.56836 7.60086 8.61349 7.49185 8.69384 7.41148C8.77418 7.33111 8.88315 7.28596 8.99677 7.28596H20.9921C21.1058 7.28596 21.2147 7.33111 21.2951 7.41148C21.3754 7.49185 21.4205 7.60086 21.4205 7.71452C21.4205 7.82819 21.3754 7.93719 21.2951 8.01756C21.2147 8.09794 21.1058 8.14309 20.9921 8.14309Z" fill="white"/>
<path d="M20.9921 11.5716H8.99677C8.88315 11.5716 8.77418 11.5265 8.69384 11.4461C8.61349 11.3657 8.56836 11.2567 8.56836 11.1431C8.56836 11.0294 8.61349 10.9204 8.69384 10.84C8.77418 10.7597 8.88315 10.7145 8.99677 10.7145H20.9921C21.1058 10.7145 21.2147 10.7597 21.2951 10.84C21.3754 10.9204 21.4205 11.0294 21.4205 11.1431C21.4205 11.2567 21.3754 11.3657 21.2951 11.4461C21.2147 11.5265 21.1058 11.5716 20.9921 11.5716Z" fill="white"/>
<path d="M20.9921 15.0001H8.99677C8.88315 15.0001 8.77418 14.955 8.69384 14.8746C8.61349 14.7943 8.56836 14.6852 8.56836 14.5716C8.56836 14.4579 8.61349 14.3489 8.69384 14.2685C8.77418 14.1882 8.88315 14.143 8.99677 14.143H20.9921C21.1058 14.143 21.2147 14.1882 21.2951 14.2685C21.3754 14.3489 21.4205 14.4579 21.4205 14.5716C21.4205 14.6852 21.3754 14.7943 21.2951 14.8746C21.2147 14.955 21.1058 15.0001 20.9921 15.0001Z" fill="white"/>
</svg>
