<svg width="38" height="41" viewBox="0 0 38 41" fill="none" xmlns="http://www.w3.org/2000/svg">
<path d="M6.81868 1.21053C6.81868 0.972055 6.62568 0.779053 6.3872 0.779053H1.21053C0.972055 0.779053 0.779053 0.972055 0.779053 1.21053V2.19884C0.779053 2.43732 0.972055 2.63032 1.21053 2.63032C1.44901 2.63032 1.64202 2.43732 1.64202 2.19884V1.64202H6.3872C6.62568 1.64312 6.81868 1.44901 6.81868 1.21053Z" fill="#FFD12D"/>
<path d="M1.21053 5.41116C1.44901 5.41116 1.64201 5.21816 1.64201 4.97968V3.5732C1.64201 3.33473 1.44901 3.14172 1.21053 3.14172C0.972054 3.14172 0.779053 3.33473 0.779053 3.5732V4.97968C0.779053 5.21927 0.972054 5.41116 1.21053 5.41116Z" fill="#FFD12D"/>
<path d="M37.221 1.21053C37.221 0.972055 37.028 0.779053 36.7895 0.779053H35.7557C35.5172 0.779053 35.3242 0.972055 35.3242 1.21053C35.3242 1.44901 35.5172 1.64202 35.7557 1.64202H36.358V4.84319C36.358 5.08166 36.551 5.27467 36.7895 5.27467C37.028 5.27467 37.221 5.08166 37.221 4.84319V1.21053Z" fill="#FFD12D"/>
<path d="M33.9866 1.64201C34.2251 1.64201 34.4181 1.44901 34.4181 1.21053C34.4181 0.972054 34.2251 0.779053 33.9866 0.779053H32.3416C32.1032 0.779053 31.9102 0.972054 31.9102 1.21053C31.9102 1.44901 32.1032 1.64201 32.3416 1.64201H33.9866Z" fill="#FFD12D"/>
<path d="M31.5283 36.7883C31.5283 37.0268 31.7213 37.2198 31.9598 37.2198H36.7893C37.0278 37.2198 37.2208 37.0268 37.2208 36.7883V35.252C37.2208 35.0136 37.0278 34.8206 36.7893 34.8206C36.5508 34.8206 36.3578 35.0136 36.3578 35.252V36.3568H31.9598C31.7213 36.3568 31.5283 36.5509 31.5283 36.7883Z" fill="#FFD12D"/>
<path d="M36.7894 31.8856C36.5509 31.8856 36.3579 32.0786 36.3579 32.3171V33.5361C36.3579 33.7746 36.5509 33.9676 36.7894 33.9676C37.0279 33.9676 37.2209 33.7746 37.2209 33.5361V32.3171C37.2209 32.0797 37.0279 31.8856 36.7894 31.8856Z" fill="#FFD12D"/>
<path d="M0.779053 36.7884C0.779053 37.0268 0.972054 37.2198 1.21053 37.2198H2.40071C2.63919 37.2198 2.83219 37.0268 2.83219 36.7884C2.83219 36.5499 2.63919 36.3569 2.40071 36.3569H1.64201V32.4791C1.64201 32.2406 1.44901 32.0476 1.21053 32.0476C0.972054 32.0476 0.779053 32.2406 0.779053 32.4791V36.7884Z" fill="#FFD12D"/>
<path d="M6.38703 37.2198C6.62551 37.2198 6.81851 37.0268 6.81851 36.7883C6.81851 36.5498 6.62551 36.3568 6.38703 36.3568H4.48031C4.24183 36.3568 4.04883 36.5498 4.04883 36.7883C4.04883 37.0268 4.24183 37.2198 4.48031 37.2198H6.38703Z" fill="#FFD12D"/>
<path d="M18.9999 11.5462C21.6798 11.5462 23.8605 9.36546 23.8605 6.68562C23.8605 4.00577 21.6798 1.82507 18.9999 1.82507C16.3201 1.82507 14.1394 4.00577 14.1394 6.68562C14.1394 9.36546 16.3201 11.5462 18.9999 11.5462ZM18.9999 4.41396C20.2522 4.41396 21.2716 5.43332 21.2716 6.68673C21.2716 7.93902 20.2522 8.95838 18.9999 8.95838C17.7477 8.95838 16.7283 7.93902 16.7283 6.68673C16.7272 5.43332 17.7465 4.41396 18.9999 4.41396Z" fill="white"/>
<path d="M22.3508 31.7604C22.1068 31.7271 21.8993 31.899 21.8705 32.1353L21.5555 34.7042C21.5266 34.9404 21.6941 35.1556 21.9304 35.1845C21.9481 35.1867 21.9659 35.1878 21.9836 35.1878C22.1988 35.1878 22.3852 35.0281 22.4118 34.8096L22.7268 32.2406C22.7545 32.0044 22.587 31.7903 22.3508 31.7604Z" fill="#FFD12D"/>
<path d="M22.9809 26.6236C22.7347 26.587 22.5284 26.7623 22.5006 26.9985L22.1856 29.5675C22.1568 29.8037 22.3243 30.0189 22.5605 30.0477C22.5783 30.05 22.596 30.0511 22.6138 30.0511C22.8289 30.0511 23.0153 29.8913 23.0419 29.6728L23.3569 27.1039C23.3858 26.8676 23.2172 26.6525 22.9809 26.6236Z" fill="#FFD12D"/>
<path d="M14.2348 25.6608C14.1915 25.6563 14.1472 25.6541 14.1017 25.6541C13.831 25.6541 13.6048 25.4511 13.5748 25.1827L13.4539 24.0957C13.4273 23.8594 13.2165 23.6908 12.9769 23.7152C12.7407 23.7419 12.5699 23.9548 12.5965 24.1922L12.7174 25.2792C12.7961 25.9847 13.3918 26.5171 14.1494 26.5193C14.1638 26.5204 14.1782 26.5215 14.1926 26.5215C14.4123 26.5215 14.5986 26.3551 14.6219 26.1333C14.6441 25.8959 14.4722 25.6852 14.2348 25.6608Z" fill="#FFD12D"/>
<path d="M25.1516 22.5583C24.912 22.5373 24.7023 22.7025 24.6746 22.9388L24.4239 25.1816C24.4173 25.2426 24.4006 25.3025 24.374 25.3557C24.2686 25.5698 24.3574 25.8283 24.5703 25.9336C24.6313 25.9636 24.6968 25.978 24.76 25.978C24.9186 25.978 25.0728 25.8893 25.1471 25.7373C25.217 25.5931 25.2625 25.44 25.2802 25.2781L25.5309 23.0353C25.5575 22.799 25.3878 22.5861 25.1516 22.5583Z" fill="#FFD12D"/>
<path d="M18.2869 39.2729H17.4739C17.2065 39.2729 16.9803 39.0733 16.9481 38.8071L16.9015 38.4288C16.8727 38.1926 16.6597 38.0151 16.4212 38.0528C16.185 38.0816 16.0164 38.2968 16.0452 38.5331L16.0918 38.9113C16.1761 39.609 16.7706 40.1348 17.4739 40.1348H18.2869C18.5254 40.1348 18.7184 39.9418 18.7184 39.7033C18.7184 39.4659 18.5254 39.2729 18.2869 39.2729Z" fill="#FFD12D"/>
<path d="M15.5803 31.2024C15.8165 31.1736 15.984 30.9584 15.9552 30.7221L15.6402 28.1532C15.6113 27.9169 15.4028 27.7406 15.1599 27.7783C14.9236 27.8071 14.7561 28.0223 14.785 28.2586L15.1 30.8275C15.1266 31.046 15.313 31.2057 15.5281 31.2057C15.5448 31.2069 15.5625 31.2057 15.5803 31.2024Z" fill="#FFD12D"/>
<path d="M21.7208 36.8993C21.479 36.8627 21.2694 37.0379 21.2406 37.2742L21.052 38.8071C21.0287 39.0023 20.8989 39.1676 20.7137 39.2386C20.4918 39.324 20.3798 39.5724 20.4641 39.7954C20.5295 39.9673 20.6937 40.0727 20.8668 40.0727C20.9178 40.0727 20.9699 40.0638 21.0209 40.045C21.5045 39.8597 21.8451 39.426 21.9072 38.9125L22.0958 37.3795C22.1246 37.1444 21.9571 36.9292 21.7208 36.8993Z" fill="#FFD12D"/>
<path d="M16.2116 36.3402C16.4479 36.3114 16.6154 36.0962 16.5865 35.8599L16.2715 33.291C16.2427 33.0548 16.0319 32.8817 15.7912 32.9161C15.555 32.9449 15.3875 33.1601 15.4163 33.3964L15.7313 35.9653C15.758 36.1838 15.9443 36.3435 16.1595 36.3435C16.175 36.3435 16.1928 36.3424 16.2116 36.3402Z" fill="#FFD12D"/>
<path d="M33.8333 20.2944C34.5488 20.2944 35.1278 19.7154 35.1278 19C35.1278 18.2845 34.5488 17.7055 33.8333 17.7055H26.9962L27.2347 15.567C27.3057 14.9303 27.1016 14.2903 26.6745 13.8133C26.2464 13.3364 25.6341 13.0613 24.993 13.0613H13.0069C12.3658 13.0613 11.7535 13.3353 11.3253 13.8133C10.8972 14.2903 10.6931 14.9303 10.7652 15.567L11.0037 17.7055H4.16651C3.45108 17.7055 2.87207 18.2845 2.87207 19C2.87207 19.7154 3.45108 20.2944 4.16651 20.2944H12.1606L12.3092 21.621C12.3336 21.8406 12.5211 22.0048 12.7373 22.0048C12.7529 22.0048 12.7695 22.0037 12.7862 22.0026C13.0224 21.976 13.1932 21.763 13.1666 21.5256L13.0291 20.2933H24.9708L24.963 20.3676C24.9375 20.6039 25.1072 20.8179 25.3435 20.8446C25.3601 20.8468 25.3756 20.8468 25.3923 20.8468C25.6097 20.8468 25.796 20.6837 25.8204 20.463L25.8393 20.2933L33.8333 20.2944ZM13.3785 15.6491H24.6214L24.3918 17.7055H13.6081L13.3785 15.6491Z" fill="white"/>
</svg>
