<svg width="18" height="18" viewBox="0 0 18 18" fill="none" xmlns="http://www.w3.org/2000/svg">
<path d="M15.9948 5.60387H14.0754V2.26382C14.0744 1.6635 13.8341 1.08791 13.4071 0.663477C12.9802 0.239178 12.4015 0.000503382 11.7979 6.3508e-06H2.28491C1.67976 -0.00141745 1.09882 0.236613 0.670206 0.661555C0.241622 1.08662 0.00053294 1.66364 0 2.26577V9.92735C0.00143124 10.5287 0.243051 11.105 0.671505 11.5291C1.10009 11.9533 1.68039 12.1908 2.28491 12.1894H3.42834V14.7871C3.42808 14.9751 3.54166 15.1445 3.71615 15.2165C3.89063 15.2884 4.09154 15.2486 4.22487 15.1155L7.15331 12.1893H7.71293V13.4103C7.71345 13.9375 7.92358 14.4432 8.29753 14.817C8.67149 15.1907 9.17878 15.4021 9.70886 15.405H12.0106L14.4858 17.8637C14.6192 17.9967 14.8201 18.0366 14.9945 17.9646C15.169 17.8927 15.2826 17.7231 15.2823 17.5353V15.405H15.9948C16.5265 15.4045 17.0363 15.1942 17.4122 14.8203C17.7882 14.4463 17.9995 13.9392 18 13.4103V7.59869C17.9995 7.06982 17.7882 6.56268 17.4122 6.18875C17.0363 5.81481 16.5265 5.60447 15.9948 5.60397L15.9948 5.60387ZM6.9591 11.2617C6.83537 11.2615 6.71657 11.3102 6.629 11.3971L4.35335 13.6592V11.7256C4.35335 11.6026 4.30417 11.4845 4.21673 11.3975C4.12929 11.3105 4.01076 11.2617 3.88703 11.2617H2.28471C1.92741 11.2637 1.58406 11.1242 1.33035 10.8738C1.07663 10.6235 0.933372 10.283 0.932472 9.92752V2.26594C0.932472 1.90973 1.07521 1.5684 1.32891 1.31717C1.58276 1.06607 1.92677 0.926006 2.28471 0.927961H11.7977C12.1543 0.927961 12.4964 1.06892 12.7487 1.31989C13.0008 1.57073 13.1425 1.91102 13.1425 2.26594V9.92752C13.1416 10.2817 12.9994 10.621 12.7474 10.8711C12.4952 11.1213 12.1537 11.2617 11.7977 11.2617L6.9591 11.2617ZM17.067 13.4105C17.067 13.6935 16.954 13.9649 16.7529 14.1649C16.5517 14.365 16.2789 14.4775 15.9944 14.4775H14.8156C14.558 14.4775 14.3493 14.6851 14.3493 14.9414V16.4259L12.5325 14.6222H12.5324C12.4448 14.5352 12.326 14.4865 12.2023 14.4868H9.70845C9.42077 14.4892 9.14403 14.3766 8.94065 14.1742C8.73715 13.9719 8.62395 13.6967 8.62655 13.4105V12.1895H11.7975C12.4007 12.189 12.9792 11.9506 13.4061 11.5267C13.833 11.1027 14.0736 10.5276 14.075 9.92752V6.5318H15.9944C16.2788 6.5318 16.5517 6.64428 16.7529 6.84426C16.954 7.04437 17.067 7.31578 17.067 7.59875L17.067 13.4105Z" fill="#FFD12D"/>
<path d="M7.09512 2.40668C6.54136 2.39167 6.00492 2.60006 5.60795 2.9845C5.21097 3.36894 4.98717 3.89675 4.9873 4.44789C4.9873 4.70405 5.19613 4.91179 5.45363 4.91179C5.71125 4.91179 5.91995 4.70405 5.91995 4.44789C5.91891 4.14786 6.04082 3.8604 6.2576 3.65188C6.47281 3.43999 6.76659 3.32648 7.06897 3.33826C7.40259 3.3503 7.7133 3.50989 7.91638 3.77343C8.11949 4.03683 8.19378 4.37672 8.11896 4.70032C8.04415 5.02392 7.82816 5.29742 7.5297 5.44627C7.24709 5.58269 7.00808 5.79472 6.83944 6.05838C6.67068 6.32217 6.57908 6.62738 6.57466 6.93995V6.95108V7.17009C6.57466 7.42624 6.78349 7.63398 7.04098 7.63398C7.29861 7.63398 7.50731 7.42624 7.50731 7.17009V6.95846C7.50835 6.81492 7.55012 6.67461 7.62766 6.55344C7.70508 6.43242 7.81541 6.33548 7.94566 6.27374C8.49592 6.00244 8.89509 5.50009 9.03339 4.90494C9.17183 4.30966 9.03482 3.6841 8.66023 3.19989C8.28564 2.71582 7.71263 2.42406 7.09888 2.40491L7.09512 2.40668Z" fill="#FFD12D"/>
<path d="M7.03761 8.62842C6.77999 8.62842 6.57129 8.83603 6.57129 9.09231V9.26123V9.2611C6.57129 9.51738 6.77999 9.725 7.03761 9.725C7.29511 9.725 7.50393 9.51738 7.50393 9.2611V9.09218V9.09231C7.50393 8.96922 7.45475 8.85131 7.36732 8.76433C7.27988 8.67722 7.16122 8.62842 7.03761 8.62842Z" fill="#FFD12D"/>
</svg>
