<svg width="20" height="20" viewBox="0 0 20 20" fill="none" xmlns="http://www.w3.org/2000/svg">
<path d="M0.896482 9.04693L0.833973 8.98442L0.896482 9.04693ZM0.896482 9.04693L0.834031 8.98447M0.896482 9.04693L0.834031 8.98447M0.834031 8.98447L0.542983 8.69339L0.834031 8.98447ZM10.9485 0.892892L10.9486 0.892976L19.1078 9.05106L19.1078 9.05109L19.109 9.05223C19.6306 9.57487 19.6303 10.426 19.1083 10.9483C18.8539 11.2027 18.5187 11.3414 18.1597 11.3414H17.8581H17.3581V11.8414V17.8452C17.3581 18.7571 16.6153 19.5 15.7029 19.5H12.5107C12.4633 19.5 12.4247 19.4614 12.4247 19.4141V14.707C12.4247 13.8887 11.7598 13.2239 10.9415 13.2239H9.0587C8.24051 13.2239 7.57533 13.8886 7.57533 14.707V19.4141C7.57533 19.4614 7.53682 19.5 7.48933 19.5H4.29718C3.3849 19.5 2.64196 18.7571 2.64196 17.8452V11.8414V11.3414H2.14196H1.81692C1.81393 11.3414 1.81108 11.3413 1.80815 11.341L1.7949 11.3397L1.7816 11.3392C1.44404 11.3246 1.13045 11.1869 0.89187 10.9482L0.891788 10.9482C0.370325 10.4267 0.369317 9.57726 0.889294 9.05434L0.889411 9.05445L0.895921 9.04756C0.896093 9.04739 0.89629 9.04719 0.896515 9.04696L9.05148 0.892973L8.69795 0.539398L9.05149 0.892969C9.30567 0.638815 9.64089 0.5 10.0001 0.5C10.3594 0.5 10.6945 0.638825 10.9485 0.892892Z" stroke="#C90D0C"/>
</svg>
