<svg width="18" height="19" viewBox="0 0 18 19" fill="none" xmlns="http://www.w3.org/2000/svg">
<path d="M9.0001 0C5.61118 0 2.86373 2.65838 2.86373 5.93742V8.31236H2.65913C1.19667 8.31236 0 9.47008 0 10.8853V12.4686C0 13.8837 1.19652 15.0415 2.65913 15.0415H4.70459C5.0259 15.0415 5.31826 14.7587 5.31826 14.4478V8.90617C5.31826 8.59527 5.02591 8.31239 4.70459 8.31239H4.09091V5.93746C4.09091 3.29566 6.26976 1.18752 9.00001 1.18752C11.7303 1.18752 13.9091 3.29573 13.9091 5.93746V8.31239H13.2954C12.9039 8.33213 12.6885 8.65587 12.6818 8.90617V14.4478C12.6818 14.7587 12.9741 15.0415 13.2954 15.0415H13.8068C13.6835 15.4027 13.4432 15.7368 13.0462 16.0311C12.5103 16.4283 11.6802 16.7425 10.5085 16.8104C10.2596 16.2404 9.67435 15.8333 8.9999 15.8333C8.10344 15.8333 7.3635 16.5493 7.3635 17.4167C7.3635 18.284 8.10344 19 8.9999 19C9.68633 19 10.2802 18.584 10.5211 17.998C11.9105 17.9273 13.0079 17.5599 13.7939 16.9775C14.4876 16.4634 14.9201 15.7756 15.0723 15.0417H15.3409C16.8033 15.0417 18 13.884 18 12.4688V10.8855C18 9.4704 16.8035 8.31253 15.3409 8.31253H15.1363V5.9376C15.1363 2.65855 12.3888 0.000176713 8.9999 0.000176713L9.0001 0ZM2.65919 9.49988H4.09097V13.854H2.65919C1.85532 13.854 1.22741 13.2464 1.22741 12.4686V10.8853C1.22741 10.1075 1.85532 9.49991 2.65919 9.49991V9.49988ZM13.9092 9.49988H15.341C16.1448 9.49988 16.7728 10.1074 16.7728 10.8852V12.4686C16.7728 13.2464 16.1448 13.854 15.341 13.854H13.9092V9.49988ZM9.0001 17.0206C9.23324 17.0206 9.40916 17.1908 9.40916 17.4164C9.40916 17.642 9.23323 17.8122 9.0001 17.8122C8.76697 17.8122 8.59105 17.642 8.59105 17.4164C8.59105 17.1908 8.76697 17.0206 9.0001 17.0206Z" fill="#FFD12D"/>
</svg>
