<svg width="9" height="14" viewBox="0 0 9 14" fill="none" xmlns="http://www.w3.org/2000/svg">
<path d="M1.49622 0V2.43878H7.49244V0H1.49622ZM1.93829 3.04848L3.26448 4.3484C3.27582 4.37141 3.29849 4.38291 3.30982 4.40592C3.69521 4.31389 4.09194 4.25637 4.5 4.25637C4.94207 4.25637 5.3728 4.31389 5.78086 4.42892C5.79219 4.40592 5.81486 4.37141 5.83753 4.3484L7.09572 3.03698L1.93829 3.04848ZM4.5 4.86606C2.0063 4.86606 0 6.91372 0 9.43303C0 11.9638 2.0063 14 4.5 14C6.9937 14 9 11.9638 9 9.43303C9 6.91372 6.98237 4.86606 4.5 4.86606ZM4.48867 7.93755C4.52267 7.93755 4.55668 7.96056 4.56801 7.99507L4.84005 8.54725C4.94207 8.75431 5.13476 8.89236 5.35013 8.92687L5.95088 9.0189C6.04156 9.0304 6.06423 9.09942 5.99622 9.16845L5.57683 9.59408C5.41814 9.75514 5.35013 9.98521 5.38413 10.2038L5.48615 10.8135C5.49748 10.9055 5.44081 10.94 5.36146 10.9055L4.81738 10.6294C4.61335 10.5259 4.37532 10.5259 4.18262 10.6294L3.63854 10.917C3.55919 10.963 3.50252 10.917 3.51385 10.825L3.61587 10.2153C3.64987 9.99671 3.58186 9.76664 3.42317 9.60559L2.98111 9.16845C2.9131 9.09942 2.93577 9.0304 3.02645 9.0189L3.6272 8.92687C3.8539 8.89236 4.0466 8.75431 4.13728 8.54725L4.42066 7.99507C4.43199 7.96056 4.466 7.93755 4.48867 7.93755Z" fill="#FFD12D"/>
</svg>
