<svg width="18" height="19" viewBox="0 0 18 19" fill="none" xmlns="http://www.w3.org/2000/svg">
<path d="M2.66059 18.6791H10.3586C11.8303 18.6791 13.019 17.4904 13.019 16.0187L13.0188 13.8679C13.0188 13.5565 12.7641 13.3019 12.4528 13.3019C12.1415 13.3019 11.8868 13.5565 11.8868 13.8679V16.0187C11.8868 16.8678 11.2076 17.5469 10.3587 17.5469H2.66065C1.81155 17.5469 1.13247 16.8676 1.13247 16.0187L1.13227 2.6604C1.13227 1.8113 1.81156 1.13221 2.66045 1.13221H10.3585C11.2076 1.13221 11.8867 1.8115 11.8867 2.6604L11.8868 4.81126C11.8868 5.12259 12.1415 5.37724 12.4528 5.37724C12.7642 5.37724 13.0188 5.12257 13.0188 4.81126V2.6604C13.0188 1.18866 11.8301 0 10.3584 0H2.6604C1.18866 0 0 1.18866 0 2.6604V16.0187C0 17.4904 1.18866 18.6791 2.6604 18.6791H2.66059Z" fill="#FFD12D"/>
<path d="M5.3775 8.77363C5.06618 8.77363 4.81152 9.0283 4.81152 9.33962C4.81152 9.65093 5.06619 9.9056 5.3775 9.9056H14.717V12.7357L18 9.22631L14.717 5.94348V8.77363H5.3775Z" fill="#FFD12D"/>
</svg>
