<svg width="39" height="39" viewBox="0 0 39 39" fill="none" xmlns="http://www.w3.org/2000/svg">
<path d="M29.4 14.1936H29V12.9919C28.9991 12.5602 28.8249 12.1468 28.5159 11.8451C28.2069 11.5435 27.7899 11.3796 27.3584 11.3896C27.6359 10.6215 27.7849 9.813 27.8 8.9963C27.8018 8.84477 27.7182 8.70469 27.5842 8.63465C27.4503 8.56415 27.288 8.57513 27.1641 8.66257C26.9589 8.8141 26.7294 8.92901 26.4853 9.00317C26.1707 9.14463 25.8091 9.13639 25.501 8.98074C22.5959 7.31621 18.328 5.51983 14.4766 8.96609C12.9232 8.73582 11.2373 9.97094 11.0064 11.3896H10.6C10.1758 11.3901 9.76891 11.559 9.46903 11.8593C9.16914 12.1596 9.00046 12.5671 9 12.9919V14.1936H8.6C8.17577 14.1941 7.76891 14.363 7.46903 14.6633C7.16914 14.9636 7.00046 15.3711 7 15.7959V18.1993C7.00046 18.6241 7.16914 19.0316 7.46903 19.3319C7.76891 19.6322 8.17577 19.8011 8.6 19.8016H9V21.0033C9.00046 21.4281 9.16914 21.8355 9.46903 22.1358C9.76891 22.4361 10.1758 22.6051 10.6 22.6055H11.1701C11.4489 24.0082 12.1003 25.3102 13.0567 26.3732C14.0126 27.4361 15.2373 28.2213 16.6018 28.6452C16.7486 31.7861 21.2528 31.7838 21.3986 28.6452C22.7627 28.2213 23.9879 27.4361 24.9438 26.3732C25.8997 25.3102 26.5515 24.0082 26.8304 22.6055H27.4005C27.8247 22.6051 28.2315 22.4361 28.5314 22.1358C28.8313 21.8355 29 21.4281 29.0005 21.0033V19.8016H29.4C29.8242 19.8011 30.2311 19.6322 30.531 19.3319C30.8309 19.0316 30.9995 18.6241 31 18.1993V15.7959C30.9995 15.3711 30.8309 14.9636 30.531 14.6633C30.2311 14.363 29.8242 14.1941 29.4 14.1936ZM9 19.0004H8.6C8.38789 19.0004 8.18446 18.9157 8.03451 18.7656C7.88457 18.6154 7.80046 18.4117 7.8 18.1993V15.7959C7.80046 15.5835 7.88457 15.3797 8.03451 15.2296C8.18446 15.0794 8.38789 14.9952 8.6 14.9947H9V19.0004ZM12.8144 10.1252C13.3259 9.80476 13.9367 9.68253 14.5319 9.78142C14.6503 9.8011 14.771 9.76768 14.8619 9.6894C16.2325 8.49868 17.6318 7.85732 19.021 7.78407C21.4859 7.6504 24.2919 9.19453 25.091 9.66926C25.7671 10.0982 26.4816 9.85604 26.9483 9.68986C26.3934 14.6757 20.7029 14.8757 16.4853 10.708C15.9934 10.2955 15.5019 11.0358 16.0377 11.3892H11.8197C12.0016 10.8687 12.3513 10.4237 12.8144 10.1252ZM19 30.2163C18.6187 30.2154 18.2498 30.0776 17.9609 29.8286C17.672 29.5791 17.4818 29.2344 17.4242 28.8567C18.4642 29.065 19.5353 29.065 20.5753 28.8567C20.5182 29.2344 20.3275 29.5791 20.0386 29.8286C19.7497 30.0776 19.3813 30.2154 19 30.2163ZM21.1934 27.8697C19.7543 28.2391 18.2453 28.2391 16.8062 27.8697C14.3765 27.102 12.5397 25.0955 11.9856 22.6051H17.0393C17.2299 22.6051 17.3936 22.4705 17.4315 22.2837C17.5312 21.798 17.8498 21.3855 18.2946 21.1672C18.7394 20.9488 19.2601 20.9488 19.7045 21.1672C20.1493 21.3855 20.4679 21.798 20.5675 22.2837C20.605 22.4709 20.7691 22.6051 20.9598 22.6051H26.0135C25.4594 25.0955 23.6226 27.1015 21.1929 27.8697H21.1934ZM28.2 21.0033C28.1995 21.2157 28.1154 21.4194 27.9655 21.5696C27.8155 21.7197 27.6121 21.8039 27.4 21.8044H21.2638C21.037 21.1804 20.563 20.6778 19.9541 20.4145C19.3451 20.1513 18.6549 20.1513 18.0459 20.4145C17.437 20.6778 16.9634 21.1804 16.7362 21.8044H10.6C10.3879 21.8044 10.1845 21.7197 10.0345 21.5696C9.88457 21.4194 9.80046 21.2157 9.8 21.0033V12.9919C9.80046 12.7795 9.88457 12.5758 10.0345 12.4256C10.1845 12.2755 10.3879 12.1912 10.6 12.1908H16.931C19.9943 14.6894 24.8446 15.5986 26.9762 12.1908H27.4C27.6121 12.1912 27.8155 12.2755 27.9655 12.4256C28.1154 12.5758 28.1995 12.7795 28.2 12.9919V21.0033ZM30.2 18.1993C30.1995 18.4117 30.1154 18.6154 29.9655 18.7656C29.8155 18.9157 29.6121 19 29.4 19.0004H29V14.9947H29.4C29.6121 14.9952 29.8155 15.0794 29.9655 15.2296C30.1154 15.3797 30.1995 15.5835 30.2 15.7959V18.1993Z" fill="white"/>
<path d="M17.3941 25.8081C17.2675 25.9894 17.3114 26.2389 17.492 26.3661C18.0739 26.8464 19.5427 27.1865 20.5173 26.4C20.6924 26.2691 20.7304 26.0214 20.6019 25.8438C20.4735 25.6666 20.2261 25.6254 20.0474 25.7518C19.8504 25.8964 19.6245 25.9972 19.3855 26.0471C18.8817 26.1313 18.3651 26.01 17.9509 25.7101C17.7704 25.5829 17.5212 25.6268 17.3941 25.8081Z" fill="white"/>
<path d="M22.5291 15.5688C22.4688 15.4813 22.376 15.4218 22.2718 15.4026C22.1671 15.3833 22.0597 15.4067 21.9723 15.4671L16.7714 19.0704C16.5899 19.1963 16.5447 19.4458 16.6704 19.628C16.7961 19.8102 17.0453 19.8551 17.2272 19.7292L22.4281 16.1254C22.6096 16 22.6549 15.7505 22.5291 15.5688Z" fill="white"/>
<path d="M23.2629 17.069L20.3724 19.0719C20.1964 19.1996 20.1548 19.445 20.2787 19.624C20.4026 19.803 20.6467 19.8506 20.8282 19.7302L23.7187 17.7273C23.8956 17.5996 23.9376 17.3538 23.8133 17.1743C23.689 16.9949 23.4444 16.9477 23.2629 17.069Z" fill="white"/>
<path d="M17.7292 16.3691C17.6689 16.2817 17.5761 16.2221 17.4718 16.2029C17.3672 16.1841 17.2597 16.207 17.1724 16.2679L14.862 17.8684C14.7747 17.9288 14.7153 18.0217 14.6961 18.1261C14.6773 18.2309 14.7002 18.3385 14.7605 18.426C14.8862 18.6077 15.1354 18.653 15.3173 18.5271L17.6277 16.9267C17.8097 16.8003 17.8549 16.5508 17.7292 16.3691Z" fill="white"/>
<circle cx="19.2288" cy="19.2287" r="18.4788" stroke="#FFD12D" stroke-width="1.5"/>
<line x1="32.8105" y1="7.47576" x2="5.89022" y2="32.0886" stroke="#FFD12D" stroke-width="1.5"/>
</svg>
