<svg width="21" height="24" viewBox="0 0 21 24" fill="none" xmlns="http://www.w3.org/2000/svg">
<path fill-rule="evenodd" clip-rule="evenodd" d="M10.2433 0H10.1577C6.11477 0 2.40785 2.93348 2.04822 6.81715C2.02423 7.09498 2.00788 7.37887 1.99733 7.68469L1.98255 8.39969L1.97963 9.04074L1.99768 8.96767C1.83083 9.78126 1.44629 10.5359 0.883841 11.1525L0.803235 11.2562C0.321644 11.9878 0.0449313 12.8346 0.00209962 13.709L0.00108473 13.9949C-0.0235021 15.1449 0.370583 16.283 1.11196 17.1868C2.11733 18.2483 3.41875 18.8815 4.81555 19.0159C8.38799 19.4039 12.0024 19.4039 15.5848 19.0149C16.972 18.8872 18.2773 18.2521 19.2406 17.2298C19.9679 16.3597 20.3648 15.3156 20.3988 14.2344L20.4 13.7505C20.3602 12.8376 20.0818 11.99 19.5944 11.2616L19.5203 11.1666L19.3395 10.9539C18.9331 10.4463 18.6363 9.86163 18.4675 9.23626L18.414 9.01172L18.4029 8.77623C18.3996 8.67032 18.398 8.55288 18.3975 8.40619L18.3973 7.59848C18.3945 7.28949 18.3854 7.06978 18.364 6.82244C17.9921 2.93142 14.2841 0 10.2433 0ZM10.1578 1.67444H10.2434C13.4804 1.67444 16.4333 4.00892 16.7169 6.97594C16.7337 7.17072 16.7412 7.35655 16.7434 7.63262L16.7466 8.71818C16.7503 8.8918 16.757 9.03617 16.7687 9.19863L16.7842 9.30983L16.8621 9.64078C17.0928 10.5162 17.5072 11.3329 18.0777 12.037L18.2431 12.2311L18.2248 12.2006C18.5413 12.6735 18.7215 13.2223 18.7467 13.7882L18.7459 13.9843C18.765 14.7716 18.504 15.5197 18.0101 16.112C17.3575 16.8024 16.4245 17.2563 15.4216 17.3487C11.9433 17.7263 8.44716 17.7263 4.98203 17.35C3.9682 17.2524 3.03459 16.7982 2.34444 16.0717C1.89705 15.5228 1.63884 14.7771 1.65505 14.0129L1.65524 13.7505L1.6762 13.5219C1.72669 13.1394 1.85448 12.7518 2.05255 12.3949L2.153 12.2287C2.88937 11.4005 3.39472 10.3934 3.6173 9.30802L3.63457 9.13785L3.6424 8.03473L3.66167 7.47506C3.67041 7.29851 3.68159 7.13075 3.69562 6.96815C3.96966 4.00906 6.91983 1.67444 10.1578 1.67444ZM2.153 12.2287C2.13519 12.2487 2.11725 12.2686 2.09917 12.2885L2.15829 12.2199L2.153 12.2287ZM13.3295 21.2287C12.9736 20.9389 12.453 20.996 12.1667 21.3562C12.0426 21.5124 11.8989 21.6525 11.7391 21.7731C11.1969 22.1983 10.5203 22.3877 9.84767 22.3076C9.17603 22.2275 8.56551 21.8857 8.15125 21.3594C7.86662 20.9977 7.34627 20.9381 6.98901 21.2262C6.63175 21.5144 6.57288 22.0411 6.85751 22.4027C7.54441 23.2755 8.55093 23.8391 9.65436 23.9705C10.7568 24.1018 11.8669 23.7911 12.7401 23.106C12.9993 22.9106 13.2439 22.6722 13.4555 22.4058C13.7419 22.0456 13.6854 21.5186 13.3295 21.2287Z" fill="white"/>
</svg>
