<svg width="18" height="18" viewBox="0 0 18 18" fill="none" xmlns="http://www.w3.org/2000/svg">
<path d="M15.6673 11.2165C15.7555 11.342 15.8319 11.4752 15.8927 11.6163L15.8339 11.4752C15.9083 11.6536 15.9593 11.8398 15.9867 12.0318C15.9789 11.9789 15.973 11.9279 15.9652 11.875C15.9887 12.0592 15.9887 12.2415 15.9652 12.4257C15.973 12.3728 15.9789 12.3218 15.9867 12.2689C15.9613 12.4571 15.9103 12.6374 15.8378 12.8138L15.8966 12.6726C15.8417 12.7981 15.777 12.9196 15.7006 13.0332C15.6732 13.0724 15.5791 13.1763 15.7045 13.0352C15.6849 13.0567 15.6673 13.0822 15.6477 13.1038C15.6065 13.1528 15.5634 13.1979 15.5183 13.2429C15.4733 13.286 15.4262 13.3272 15.3772 13.3684C15.293 13.4409 15.4968 13.2841 15.4047 13.3468C15.3772 13.3664 15.3498 13.386 15.3224 13.4036C15.2146 13.4742 15.1009 13.533 14.9833 13.5839L15.1244 13.5251C14.95 13.5977 14.7677 13.6466 14.5796 13.6721C14.6325 13.6643 14.6835 13.6584 14.7364 13.6506C14.5757 13.6702 14.415 13.6721 14.2543 13.6584C13.9583 13.631 13.6389 13.9504 13.6663 14.2463C13.682 14.407 13.6781 14.5678 13.6585 14.7284C13.6663 14.6755 13.6722 14.6246 13.6801 14.5717C13.6546 14.7598 13.6056 14.9421 13.5331 15.1165L13.5919 14.9754C13.5429 15.089 13.486 15.1988 13.4194 15.3027C13.3978 15.334 13.3763 15.3654 13.3547 15.3967C13.2979 15.479 13.4449 15.285 13.3763 15.3693C13.3351 15.4183 13.2959 15.4653 13.2509 15.5104C13.2058 15.5555 13.1607 15.5986 13.1117 15.6398C13.0902 15.6594 13.0666 15.677 13.0431 15.6966C13.1862 15.577 13.0902 15.6593 13.0529 15.6848C12.9353 15.7652 12.8099 15.8338 12.6805 15.8886L12.8216 15.8299C12.6472 15.9024 12.465 15.9514 12.2768 15.9788C12.3297 15.971 12.3807 15.9651 12.4336 15.9572C12.2494 15.9808 12.0671 15.9808 11.8829 15.9572C11.9358 15.9651 11.9868 15.971 12.0397 15.9788C11.8476 15.9514 11.6614 15.9004 11.4831 15.8259L11.6242 15.8847C11.4831 15.824 11.3499 15.7475 11.2244 15.6593C10.9834 15.4888 10.5444 15.5986 10.4209 15.871C10.368 15.9886 10.3053 16.1003 10.2308 16.2061C10.2151 16.2277 10.1975 16.2492 10.1818 16.2728C10.2896 16.1121 10.221 16.2238 10.1877 16.261C10.1485 16.3061 10.1093 16.3492 10.0662 16.3904C10.0231 16.4315 9.97996 16.4707 9.93488 16.5099C9.82121 16.604 10.027 16.4452 9.94664 16.5021C9.92312 16.5177 9.90156 16.5334 9.88 16.5491C9.77221 16.6216 9.65854 16.6804 9.54096 16.7333C9.58799 16.7137 9.63503 16.6941 9.68206 16.6745C9.50764 16.747 9.32734 16.798 9.14115 16.8254C9.19406 16.8176 9.24502 16.8117 9.29793 16.8039C9.10587 16.8294 8.91187 16.8294 8.71781 16.8039C8.77073 16.8117 8.82168 16.8176 8.8746 16.8254C8.68842 16.798 8.5081 16.749 8.33368 16.6745C8.38072 16.6941 8.42775 16.7137 8.47479 16.7333C8.3572 16.6824 8.24353 16.6216 8.13574 16.5491C8.11223 16.5334 8.09067 16.5177 8.06911 16.5021C7.9868 16.4452 8.19454 16.604 8.08087 16.5099C8.03579 16.4727 7.99072 16.4315 7.94956 16.3904C7.90645 16.3492 7.86725 16.3061 7.82805 16.261C7.7967 16.2238 7.72614 16.1121 7.83393 16.2728C7.81825 16.2493 7.80062 16.2277 7.78494 16.2061C7.71243 16.1003 7.64971 15.9886 7.59484 15.871C7.53996 15.7495 7.36946 15.6299 7.24403 15.6006C7.09704 15.5672 6.9187 15.5692 6.79131 15.6593C6.66588 15.7475 6.53261 15.824 6.39152 15.8847L6.53262 15.8259C6.35428 15.9004 6.16809 15.9514 5.97605 15.9788C6.02896 15.971 6.07992 15.9651 6.13283 15.9572C5.94861 15.9808 5.76633 15.9808 5.58213 15.9572C5.63505 15.9651 5.686 15.971 5.73892 15.9788C5.55078 15.9533 5.37048 15.9024 5.1941 15.8299L5.3352 15.8886C5.20977 15.8338 5.08827 15.7691 4.97462 15.6927C4.93542 15.6652 4.83155 15.5712 4.97266 15.6966C4.9511 15.677 4.92562 15.6593 4.90406 15.6397C4.85507 15.5986 4.80999 15.5555 4.76492 15.5104C4.7218 15.4653 4.68064 15.4183 4.63949 15.3693C4.56698 15.285 4.72376 15.4888 4.66105 15.3967C4.64145 15.3693 4.62185 15.3419 4.60421 15.3144C4.53366 15.2066 4.47487 15.093 4.42391 14.9754L4.48271 15.1165C4.4102 14.9421 4.3612 14.7598 4.33572 14.5717C4.34356 14.6246 4.34944 14.6755 4.35728 14.7284C4.33768 14.5677 4.33572 14.407 4.34944 14.2463C4.37688 13.9504 4.05743 13.631 3.76151 13.6584C3.6008 13.6741 3.4401 13.6702 3.2794 13.6506C3.33232 13.6584 3.38327 13.6643 3.43618 13.6721C3.24804 13.6466 3.06578 13.5977 2.89136 13.5251L3.03247 13.5839C2.9188 13.5349 2.80905 13.4781 2.70518 13.4115C2.67382 13.3899 2.64247 13.3684 2.61111 13.3468C2.5288 13.29 2.72282 13.4369 2.63855 13.3684C2.58955 13.3272 2.54252 13.288 2.49744 13.2429C2.45237 13.1978 2.40925 13.1528 2.36809 13.1038C2.3485 13.0822 2.33086 13.0587 2.31126 13.0352C2.43081 13.1782 2.3485 13.0822 2.32302 13.045C2.24267 12.9274 2.17408 12.802 2.1192 12.6726L2.17799 12.8137C2.10548 12.6393 2.05649 12.457 2.02905 12.2689C2.03689 12.3218 2.04277 12.3728 2.05061 12.4257C2.02709 12.2415 2.02709 12.0592 2.05061 11.875C2.04277 11.9279 2.03689 11.9788 2.02905 12.0318C2.05649 11.8397 2.10744 11.6535 2.18191 11.4752L2.12312 11.6163C2.18387 11.4752 2.26031 11.3419 2.3485 11.2165C2.519 10.9754 2.40925 10.5364 2.13684 10.413C2.01926 10.3601 1.90755 10.2973 1.80171 10.2229C1.78016 10.2072 1.7586 10.1896 1.73508 10.1739C1.89579 10.2817 1.78408 10.2131 1.74684 10.1798C1.70176 10.1406 1.65865 10.1014 1.61749 10.0583C1.57634 10.0151 1.53714 9.97202 1.49794 9.92694C1.40387 9.81327 1.56262 10.0191 1.50578 9.9387C1.49011 9.91518 1.47443 9.89363 1.45875 9.87207C1.38624 9.76428 1.32744 9.65061 1.27453 9.53302C1.29413 9.58006 1.31373 9.62709 1.33332 9.67413C1.26081 9.49971 1.20985 9.31941 1.18242 9.13321C1.19026 9.18613 1.19614 9.23708 1.20398 9.29C1.1785 9.09794 1.1785 8.90393 1.20398 8.70988C1.19614 8.76279 1.19026 8.81375 1.18242 8.86666C1.20985 8.68048 1.25885 8.50016 1.33332 8.32575C1.31372 8.37278 1.29412 8.41982 1.27453 8.46685C1.32548 8.34927 1.38624 8.2356 1.45875 8.12781C1.47443 8.10429 1.49011 8.08273 1.50578 8.06117C1.56262 7.97886 1.40387 8.1866 1.49794 8.07293C1.53518 8.02786 1.57634 7.98278 1.61749 7.94162C1.65865 7.89851 1.70176 7.85931 1.74684 7.82012C1.78408 7.78876 1.89578 7.71821 1.73508 7.826C1.7586 7.81032 1.78016 7.79268 1.80171 7.777C1.90754 7.70449 2.01925 7.64178 2.13684 7.5869C2.25835 7.53203 2.3779 7.36152 2.4073 7.23609C2.44061 7.08911 2.43865 6.91077 2.3485 6.78337C2.26031 6.65794 2.18388 6.52468 2.12312 6.38358L2.18192 6.52469C2.10745 6.34634 2.05649 6.16016 2.02905 5.96811C2.03689 6.02103 2.04277 6.07198 2.05061 6.1249C2.02709 5.94068 2.02709 5.7584 2.05061 5.5742C2.04277 5.62711 2.03689 5.67807 2.02905 5.73098C2.05453 5.54284 2.10549 5.36255 2.178 5.18616L2.1192 5.32727C2.17408 5.20184 2.23875 5.08033 2.31519 4.96668C2.34262 4.92748 2.43669 4.82362 2.31127 4.96472C2.33086 4.94316 2.3485 4.91769 2.3681 4.89613C2.40925 4.84713 2.45237 4.80206 2.49745 4.75698C2.54252 4.71387 2.58956 4.67271 2.63855 4.63155C2.72283 4.55904 2.51901 4.71583 2.61112 4.65311C2.63855 4.63351 2.66599 4.61391 2.69343 4.59628C2.80122 4.52572 2.91489 4.46693 3.03247 4.41598L2.89137 4.47477C3.06579 4.40226 3.24805 4.35326 3.43619 4.32779C3.38327 4.33562 3.33232 4.3415 3.2794 4.34934C3.44011 4.32974 3.60081 4.32779 3.76151 4.3415C4.05744 4.36894 4.37689 4.04949 4.34944 3.75357C4.33377 3.59287 4.33769 3.43216 4.35728 3.27146C4.34944 3.32438 4.34356 3.37533 4.33573 3.42825C4.3612 3.24011 4.4102 3.05784 4.48271 2.88343L4.42392 3.02453C4.47291 2.91086 4.52975 2.80111 4.59638 2.69725C4.61794 2.66589 4.6395 2.63453 4.66106 2.60318C4.71789 2.52086 4.57091 2.71488 4.6395 2.63061C4.68065 2.58162 4.71985 2.53458 4.76493 2.48951C4.81 2.44443 4.85507 2.40132 4.90407 2.36016C4.92563 2.34056 4.94915 2.32292 4.97267 2.30333C4.8296 2.42287 4.92563 2.34056 4.96287 2.31508C5.08045 2.23473 5.20588 2.16614 5.33524 2.11126L5.19414 2.17006C5.36856 2.09755 5.55082 2.04855 5.73896 2.02112C5.68604 2.02895 5.63509 2.03483 5.58217 2.04267C5.76639 2.01916 5.94867 2.01916 6.13287 2.04267C6.07996 2.03483 6.029 2.02895 5.97609 2.02112C6.16815 2.04855 6.35434 2.09951 6.53266 2.17398L6.39156 2.11519C6.53266 2.17594 6.66593 2.25237 6.79135 2.34056C7.0324 2.51107 7.47142 2.40132 7.59487 2.12891C7.64779 2.01132 7.7105 1.89961 7.78497 1.79378C7.80065 1.77222 7.81829 1.75066 7.83397 1.72715C7.72618 1.88785 7.79477 1.77614 7.82809 1.7389C7.86729 1.69383 7.90648 1.65071 7.9496 1.60956C7.99271 1.5684 8.03583 1.5292 8.0809 1.49001C8.19457 1.39594 7.98879 1.55468 8.06915 1.49785C8.09266 1.48217 8.11422 1.46649 8.13578 1.45081C8.24357 1.3783 8.35724 1.3195 8.47482 1.26659C8.42779 1.28619 8.38075 1.30579 8.33372 1.32539C8.50814 1.25287 8.68844 1.20192 8.87463 1.17448C8.82172 1.18232 8.77077 1.1882 8.71785 1.19604C8.90991 1.17056 9.10392 1.17056 9.29797 1.19604C9.24505 1.1882 9.1941 1.18232 9.14119 1.17448C9.32737 1.20192 9.50768 1.25091 9.6821 1.32539C9.63507 1.30579 9.58803 1.28619 9.54099 1.26659C9.65858 1.31755 9.77225 1.3783 9.88004 1.45081C9.90356 1.46649 9.92511 1.48217 9.94667 1.49785C10.029 1.55468 9.82125 1.39594 9.93491 1.49001C9.97999 1.52725 10.0251 1.5684 10.0662 1.60956C10.1093 1.65071 10.1485 1.69383 10.1877 1.7389C10.2191 1.77614 10.2896 1.88785 10.1819 1.72715C10.1975 1.75066 10.2152 1.77222 10.2308 1.79378C10.3034 1.89961 10.3661 2.01132 10.4209 2.12891C10.4758 2.25041 10.6463 2.36996 10.7718 2.39936C10.9187 2.43268 11.0971 2.43072 11.2245 2.34057C11.3499 2.25238 11.4832 2.17594 11.6243 2.11519L11.4832 2.17398C11.6615 2.09951 11.8477 2.04855 12.0397 2.02112C11.9868 2.02896 11.9359 2.03484 11.883 2.04268C12.0672 2.01916 12.2495 2.01916 12.4337 2.04268C12.3807 2.03484 12.3298 2.02896 12.2769 2.02112C12.465 2.0466 12.6453 2.09755 12.8217 2.17006L12.6806 2.11127C12.806 2.16614 12.9275 2.23082 13.0412 2.30725C13.0804 2.33469 13.1842 2.42876 13.0431 2.30333C13.0647 2.32293 13.0902 2.34057 13.1117 2.36016C13.1607 2.40132 13.2058 2.44444 13.2509 2.48951C13.294 2.53459 13.3351 2.58162 13.3763 2.63062C13.4488 2.71489 13.292 2.51107 13.3547 2.60318C13.3743 2.63062 13.3939 2.65805 13.4116 2.68549C13.4821 2.79328 13.5409 2.90695 13.5919 3.02454L13.5331 2.88343C13.6056 3.05786 13.6546 3.24012 13.6801 3.42825C13.6722 3.37534 13.6663 3.32439 13.6585 3.27147C13.6781 3.43217 13.6801 3.59288 13.6663 3.75358C13.6389 4.04951 13.9584 4.36896 14.2543 4.34151C14.415 4.32583 14.5757 4.32975 14.7364 4.34935C14.6835 4.34151 14.6325 4.33563 14.5796 4.32779C14.7677 4.35327 14.95 4.40226 15.1244 4.47478L14.9833 4.41598C15.097 4.46498 15.2067 4.52181 15.3106 4.58845C15.342 4.61 15.3733 4.63156 15.4047 4.65312C15.487 4.70995 15.293 4.56297 15.3772 4.63156C15.4262 4.67272 15.4733 4.71191 15.5183 4.75699C15.5634 4.80206 15.6065 4.84714 15.6477 4.89614C15.6673 4.91769 15.6849 4.94121 15.7045 4.96473C15.585 4.82166 15.6673 4.91769 15.6928 4.95493C15.7731 5.07252 15.8417 5.19794 15.8966 5.32731L15.8378 5.1862C15.9103 5.36062 15.9593 5.54288 15.9867 5.73102C15.9789 5.67811 15.973 5.62715 15.9652 5.57424C15.9887 5.75846 15.9887 5.94074 15.9652 6.12494C15.973 6.07202 15.9789 6.02107 15.9867 5.96815C15.9593 6.16021 15.9083 6.34641 15.8339 6.52473L15.8927 6.38362C15.8319 6.52473 15.7555 6.65799 15.6673 6.78341C15.4968 7.02447 15.6065 7.46348 15.8789 7.58694C15.9965 7.63985 16.1082 7.70257 16.2141 7.77704C16.2356 7.79272 16.2572 7.81035 16.2807 7.82603C16.12 7.71824 16.2317 7.78684 16.2689 7.82015C16.314 7.85935 16.3571 7.89855 16.3983 7.94166C16.4394 7.98478 16.4786 8.02789 16.5178 8.07297C16.6119 8.18664 16.4532 7.98086 16.51 8.06121C16.5257 8.08473 16.5414 8.10629 16.557 8.12784C16.6295 8.23563 16.6883 8.3493 16.7413 8.46689C16.7217 8.41986 16.7021 8.37282 16.6825 8.32578C16.755 8.50021 16.8059 8.68051 16.8334 8.8667C16.8255 8.81378 16.8196 8.76283 16.8118 8.70991C16.8373 8.90198 16.8373 9.09598 16.8118 9.29003C16.8196 9.23712 16.8255 9.18617 16.8334 9.13325C16.8059 9.31943 16.7569 9.49975 16.6825 9.67416C16.7021 9.62713 16.7217 9.58009 16.7413 9.53306C16.6903 9.65065 16.6295 9.76432 16.557 9.8721C16.5414 9.89562 16.5257 9.91718 16.51 9.93874C16.4532 10.0211 16.6119 9.81331 16.5178 9.92698C16.4806 9.97205 16.4394 10.0171 16.3983 10.0583C16.3571 10.1014 16.314 10.1406 16.2689 10.1798C16.2317 10.2112 16.12 10.2817 16.2807 10.1739C16.2572 10.1896 16.2356 10.2072 16.2141 10.2229C16.1082 10.2954 15.9965 10.3581 15.8789 10.413C15.7535 10.4718 15.6438 10.6364 15.6085 10.7638C15.5693 10.903 15.5869 11.0911 15.6673 11.2165C15.7476 11.342 15.8691 11.4517 16.0181 11.487C16.1808 11.5242 16.3199 11.4968 16.4708 11.4282C17.1744 11.1048 17.7153 10.4405 17.9113 9.69572C18.1131 8.92943 17.97 8.05929 17.488 7.42233C17.2175 7.06368 16.8804 6.75993 16.4688 6.56982C16.5394 6.83832 16.6099 7.10679 16.6805 7.37335C17.1411 6.7227 17.2782 5.84077 17.045 5.07645C16.9196 4.66684 16.7021 4.29252 16.4081 3.98093C16.1318 3.68696 15.7927 3.48119 15.4223 3.33028C15.0578 3.18329 14.6423 3.12254 14.2504 3.15978L14.8383 3.74771C14.9088 2.99515 14.6227 2.23083 14.1092 1.68206C13.5644 1.10001 12.7217 0.766838 11.924 0.85306C11.4596 0.904016 11.0108 1.04512 10.6247 1.31754C10.8932 1.38809 11.1616 1.45864 11.4282 1.52919C11.1048 0.825617 10.4405 0.284702 9.69572 0.0887484C8.92943 -0.113111 8.05929 0.0299551 7.42233 0.512048C7.06368 0.782502 6.75993 1.11958 6.56982 1.53116C6.83831 1.46061 7.10679 1.39006 7.37335 1.31951C6.7227 0.858938 5.84077 0.721756 5.07645 0.954979C4.66684 1.08041 4.29252 1.29794 3.98093 1.5919C3.68696 1.86823 3.48119 2.20728 3.33028 2.57769C3.18329 2.94222 3.12254 3.3577 3.15978 3.74965L3.74771 3.16171C2.99515 3.09116 2.23083 3.37729 1.68206 3.89077C1.10001 4.43559 0.766838 5.27832 0.85306 6.07597C0.904016 6.54044 1.04512 6.98922 1.31754 7.37532C1.38809 7.10683 1.45864 6.83835 1.52919 6.5718C0.825617 6.89517 0.284702 7.55952 0.0887484 8.30428C-0.113111 9.07057 0.0299551 9.94071 0.512048 10.5777C0.782502 10.9363 1.11958 11.2401 1.53116 11.4302C1.46061 11.1617 1.39006 10.8932 1.31951 10.6267C0.858938 11.2773 0.721756 12.1592 0.954979 12.9236C1.08041 13.3332 1.29794 13.7075 1.5919 14.0191C1.86823 14.313 2.20728 14.5188 2.57769 14.6697C2.94222 14.8167 3.3577 14.8775 3.74965 14.8402L3.16171 14.2523C3.09116 15.0049 3.37729 15.7692 3.89077 16.3179C4.43559 16.9 5.27832 17.2332 6.07597 17.1469C6.54044 17.096 6.98922 16.9549 7.37532 16.6825C7.10683 16.6119 6.83835 16.5414 6.5718 16.4708C6.89517 17.1724 7.55952 17.7153 8.30427 17.9113C9.07057 18.1131 9.94071 17.97 10.5777 17.488C10.9363 17.2175 11.2401 16.8804 11.4302 16.4688C11.1617 16.5394 10.8932 16.6099 10.6267 16.6805C11.2773 17.1411 12.1592 17.2782 12.9236 17.045C13.3332 16.9196 13.7075 16.7021 14.0191 16.4081C14.313 16.1318 14.5188 15.7927 14.6697 15.4223C14.8167 15.0578 14.8775 14.6423 14.8402 14.2504L14.2523 14.8383C15.0049 14.9088 15.7692 14.6227 16.3179 14.1092C16.9 13.5644 17.2332 12.7217 17.1469 11.924C17.096 11.4596 16.9549 11.0108 16.6825 10.6247C16.5923 10.4973 16.4865 10.3973 16.3317 10.3542C16.1906 10.315 16.0044 10.3327 15.8789 10.413C15.63 10.5718 15.4772 10.9481 15.6673 11.2165Z" fill="#FFD12D"/>
<path d="M11.5308 5.64297L6.37861 10.7952C6.13951 11.0343 5.8965 11.2675 5.6613 11.5125L5.65151 11.5223C5.43397 11.7398 5.41829 12.1396 5.65151 12.3532C5.88668 12.5688 6.25119 12.5865 6.48248 12.3532L11.6347 7.20105C11.8738 6.96195 12.1168 6.72872 12.352 6.48375L12.3618 6.47395C12.5793 6.25641 12.595 5.85659 12.3618 5.64297C12.1266 5.42739 11.7621 5.40976 11.5308 5.64297Z" fill="#FFD12D"/>
<path d="M7.22209 6.93016C7.22209 6.96544 7.22013 7.00071 7.21621 7.03795C7.22405 6.98503 7.22993 6.93408 7.23777 6.88116C7.22601 6.95956 7.20641 7.03403 7.17898 7.10654L7.23777 6.96544C7.21817 7.01247 7.19466 7.05755 7.16722 7.10066C7.09862 7.20845 7.19857 7.06146 7.20053 7.06342C7.20249 7.06734 7.14762 7.12222 7.14174 7.1281C7.1241 7.14574 7.10254 7.16141 7.08687 7.17905C7.04767 7.22021 7.22405 7.09086 7.1241 7.1477C7.07511 7.17513 7.03003 7.20257 6.97712 7.22609L7.11822 7.1673C7.04571 7.19669 6.96928 7.21629 6.89284 7.22609C6.94576 7.21825 6.99671 7.21237 7.04963 7.20453C6.97712 7.21237 6.90656 7.21237 6.83405 7.20453C6.88697 7.21237 6.93792 7.21825 6.99084 7.22609C6.91244 7.21433 6.83797 7.19473 6.76546 7.1673L6.90656 7.22609C6.85953 7.20649 6.81445 7.18297 6.77134 7.15553C6.66355 7.08694 6.81054 7.18689 6.80858 7.18885C6.80466 7.19081 6.74978 7.13594 6.7439 7.13006C6.72626 7.11242 6.71058 7.09086 6.69295 7.07519C6.65179 7.03599 6.78114 7.21237 6.7243 7.11242C6.69687 7.06343 6.66943 7.01835 6.64591 6.96544L6.7047 7.10654C6.67531 7.03403 6.65571 6.9576 6.64591 6.88116C6.65375 6.93408 6.65963 6.98503 6.66747 7.03795C6.65963 6.96544 6.65963 6.89488 6.66747 6.82237C6.65963 6.87529 6.65375 6.92624 6.64591 6.97915C6.65767 6.90076 6.67727 6.82629 6.7047 6.75378L6.64591 6.89488C6.66551 6.84785 6.68903 6.80277 6.71647 6.75966C6.78506 6.65187 6.68511 6.79885 6.68315 6.79689C6.68119 6.79297 6.73606 6.7381 6.74194 6.73222C6.75958 6.71458 6.78114 6.6989 6.79681 6.68126C6.83601 6.64011 6.65963 6.76945 6.75958 6.71262C6.80857 6.68518 6.85365 6.65775 6.90656 6.63423L6.76546 6.69302C6.83797 6.66363 6.9144 6.64403 6.99084 6.63423C6.93792 6.64207 6.88697 6.64795 6.83405 6.65579C6.90656 6.64795 6.97712 6.64795 7.04963 6.65579C6.99671 6.64795 6.94576 6.64207 6.89285 6.63423C6.97124 6.64599 7.04571 6.66559 7.11822 6.69302L6.97712 6.63423C7.02415 6.65383 7.06923 6.67734 7.11234 6.70478C7.22013 6.77338 7.07315 6.67343 7.07511 6.67147C7.07903 6.66951 7.1339 6.72438 7.13978 6.73026C7.15742 6.7479 7.1731 6.76946 7.19074 6.78513C7.23189 6.82433 7.10255 6.64795 7.15938 6.7479C7.18682 6.79689 7.21425 6.84197 7.23777 6.89488L7.17898 6.75378C7.20837 6.82629 7.22797 6.90272 7.23777 6.97916C7.22993 6.92624 7.22405 6.87529 7.21621 6.82237C7.22013 6.85765 7.22209 6.89488 7.22209 6.93016C7.22601 7.23785 7.48863 7.53182 7.81002 7.51809C8.12359 7.50437 8.40383 7.2594 8.39796 6.93016C8.38816 6.29517 7.99422 5.76605 7.40432 5.54849C6.87322 5.3525 6.20885 5.53085 5.84626 5.96397C5.4445 6.44218 5.3524 7.12615 5.68164 7.67488C5.82274 7.91005 6.03636 8.11778 6.28329 8.23342C6.59686 8.38041 6.9124 8.41764 7.25339 8.35493C7.92166 8.23146 8.38814 7.58865 8.39796 6.93016C8.40188 6.62247 8.12356 6.32849 7.81 6.34221C7.48663 6.35593 7.22797 6.60092 7.22209 6.93016Z" fill="#FFD12D"/>
<path d="M11.3578 11.0657C11.3578 11.1009 11.3559 11.1382 11.352 11.1734C11.3598 11.1205 11.3657 11.0696 11.3735 11.0167C11.3618 11.0951 11.3422 11.1695 11.3147 11.242L11.3735 11.1009C11.3539 11.148 11.3304 11.193 11.303 11.2362C11.2344 11.3439 11.3343 11.197 11.3363 11.1989C11.3382 11.2028 11.2834 11.2577 11.2775 11.2636C11.2598 11.2812 11.2383 11.2969 11.2226 11.3146C11.1834 11.3557 11.3598 11.2264 11.2598 11.2832C11.2109 11.3106 11.1658 11.3381 11.1129 11.3616L11.254 11.3028C11.1815 11.3322 11.105 11.3518 11.0286 11.3616C11.0815 11.3537 11.1325 11.3479 11.1854 11.34C11.1129 11.3479 11.0423 11.3479 10.9698 11.34C11.0227 11.3479 11.0737 11.3537 11.1266 11.3616C11.0482 11.3498 10.9737 11.3302 10.9012 11.3028L11.0423 11.3616C10.9953 11.342 10.9502 11.3185 10.9071 11.291C10.7993 11.2224 10.9463 11.3224 10.9443 11.3243C10.9404 11.3263 10.8855 11.2714 10.8796 11.2656C10.862 11.2479 10.8463 11.2264 10.8287 11.2107C10.7875 11.1715 10.9169 11.3479 10.86 11.2479C10.8326 11.1989 10.8052 11.1539 10.7817 11.1009L10.8404 11.242C10.811 11.1695 10.7915 11.0931 10.7817 11.0167C10.7895 11.0696 10.7954 11.1205 10.8032 11.1734C10.7954 11.1009 10.7954 11.0304 10.8032 10.9579C10.7954 11.0108 10.7895 11.0617 10.7817 11.1147C10.7934 11.0363 10.813 10.9618 10.8404 10.8893L10.7817 11.0304C10.8013 10.9833 10.8248 10.9383 10.8522 10.8952C10.9208 10.7874 10.8209 10.9344 10.8189 10.9324C10.8169 10.9285 10.8718 10.8736 10.8777 10.8677C10.8953 10.8501 10.9169 10.8344 10.9326 10.8168C10.9718 10.7756 10.7954 10.905 10.8953 10.8481C10.9443 10.8207 10.9894 10.7932 11.0423 10.7697L10.9012 10.8285C10.9737 10.7991 11.0501 10.7795 11.1266 10.7697C11.0737 10.7776 11.0227 10.7834 10.9698 10.7913C11.0423 10.7834 11.1129 10.7834 11.1854 10.7913C11.1325 10.7834 11.0815 10.7776 11.0286 10.7697C11.107 10.7815 11.1815 10.8011 11.254 10.8285L11.1129 10.7697C11.1599 10.7893 11.205 10.8128 11.2481 10.8403C11.3559 10.9089 11.2089 10.8089 11.2108 10.807C11.2148 10.805 11.2696 10.8599 11.2755 10.8658C11.2932 10.8834 11.3088 10.905 11.3265 10.9206C11.3676 10.9598 11.2383 10.7834 11.2951 10.8834C11.3226 10.9324 11.35 10.9775 11.3735 11.0304L11.3147 10.8893C11.3441 10.9618 11.3637 11.0382 11.3735 11.1147C11.3657 11.0617 11.3598 11.0108 11.352 10.9579C11.3559 10.9951 11.3578 11.0304 11.3578 11.0657C11.3618 11.3733 11.6244 11.6673 11.9458 11.6536C12.2593 11.6399 12.5396 11.3949 12.5337 11.0657C12.5239 10.4307 12.13 9.90155 11.5401 9.68398C11.009 9.488 10.3446 9.66635 9.982 10.0995C9.58024 10.5777 9.48814 11.2616 9.81738 11.8104C9.95848 12.0455 10.1721 12.2533 10.419 12.3689C10.7326 12.5159 11.0481 12.5531 11.3891 12.4904C12.0574 12.367 12.5239 11.7241 12.5337 11.0656C12.5376 10.758 12.2593 10.464 11.9457 10.4777C11.6224 10.4914 11.3637 10.7364 11.3578 11.0656L11.3578 11.0657Z" fill="#FFD12D"/>
</svg>
