<svg width="20" height="20" viewBox="0 0 20 20" fill="none" xmlns="http://www.w3.org/2000/svg">
<path d="M18 3.91305H15.6412C15.8689 3.52898 16 3.08371 16 2.60871C16 1.17027 14.8037 0 13.3333 0C11.9435 0 10.7172 0.697148 9.99998 1.75262C9.28279 0.697148 8.05649 0 6.66667 0C5.19627 0 3.99999 1.17027 3.99999 2.60871C3.99999 3.08371 4.13104 3.52902 4.35873 3.91305H2C0.897197 3.91305 0 4.79074 0 5.86957V8.91305C0 9.2732 0.29848 9.56523 0.666679 9.56523H1.33336V18.0435C1.33336 19.1223 2.23055 20 3.33335 20C3.89114 20 16.0524 20 16.6666 20C17.7694 20 18.6666 19.1223 18.6666 18.0435V9.56523H19.3333C19.7015 9.56523 20 9.27324 20 8.91305V5.86957C20 4.79074 19.1028 3.91305 18 3.91305ZM6.66667 1.30434C8.13706 1.30434 9.33334 2.47461 9.33334 3.91305C9.04137 3.91305 7.00596 3.91305 6.66667 3.91305C5.93147 3.91305 5.33335 3.32793 5.33335 2.60871C5.33331 1.88949 5.93147 1.30434 6.66667 1.30434ZM7.99998 18.6957H3.33335C2.96575 18.6957 2.66667 18.4031 2.66667 18.0435V9.56523H7.99998V18.6957ZM7.99998 8.26086C7.72195 8.26086 1.61347 8.26086 1.33336 8.26086V5.86957C1.33336 5.50996 1.63244 5.21738 2.00004 5.21738C2.12051 5.21738 7.86845 5.21738 8.00002 5.21738V8.26086H7.99998ZM10.6667 18.6957H9.33334V9.56523H10.6667V18.6957ZM10.6667 8.26086H9.33334V5.21738C9.81582 5.21738 10.1842 5.21738 10.6667 5.21738V8.26086ZM13.3333 1.30434C14.0685 1.30434 14.6666 1.88945 14.6666 2.60867C14.6666 3.32789 14.0685 3.91301 13.3333 3.91301C13.0269 3.91301 10.954 3.91301 10.6666 3.91301C10.6667 2.47461 11.8629 1.30434 13.3333 1.30434ZM17.3333 18.0435C17.3333 18.4031 17.0342 18.6957 16.6666 18.6957H11.9999V9.56523H17.3332V18.0435H17.3333ZM18.6666 8.26086C18.3864 8.26086 12.2778 8.26086 12 8.26086V5.21738C12.1316 5.21738 17.8796 5.21738 18 5.21738C18.3676 5.21738 18.6666 5.50996 18.6666 5.86957V8.26086H18.6666Z" fill="#C90D0C"/>
</svg>
