<svg width="30" height="30" viewBox="0 0 30 30" fill="none" xmlns="http://www.w3.org/2000/svg">
<path d="M28.7117 15.8568H1.28983C0.156165 15.8568 0.155822 14.1429 1.28983 14.1429H28.7117C29.8454 14.1429 29.8457 15.8568 28.7117 15.8568Z" fill="white"/>
<path d="M28.7124 15.8568H15.0015V14.1429H28.7124C29.8461 14.1429 29.8464 15.8568 28.7124 15.8568Z" fill="white"/>
<path d="M27.9119 7.63032V3.53651C27.9119 2.73825 27.2624 2.08881 26.4642 2.08881H22.3704C21.2374 2.08881 21.2358 0.374939 22.3704 0.374939H26.4642C28.2074 0.374939 29.6257 1.79322 29.6257 3.53651V7.63032C29.6257 8.7633 27.9119 8.7649 27.9119 7.63032Z" fill="white"/>
<path d="M26.4642 29.6248H22.3704C21.2374 29.6248 21.2358 27.9109 22.3704 27.9109H26.4642C27.2625 27.9109 27.9119 27.2615 27.9119 26.4632V22.3694C27.9119 21.2365 29.6257 21.2349 29.6257 22.3694V26.4632C29.6257 28.2065 28.2074 29.6248 26.4642 29.6248Z" fill="white"/>
<path d="M0.375488 7.63087V3.53706C0.375488 1.79377 1.79377 0.375488 3.537 0.375488H7.63087C8.76385 0.375488 8.76545 2.08936 7.63087 2.08936H3.537C2.7388 2.08936 2.08936 2.7388 2.08936 3.53706V7.63087C2.08936 8.76385 0.375488 8.76545 0.375488 7.63087H0.375488Z" fill="white"/>
<path d="M7.63087 29.6248H3.537C1.79377 29.6248 0.375488 28.2065 0.375488 26.4632V22.3694C0.375488 21.2365 2.08936 21.2349 2.08936 22.3694V26.4632C2.08936 27.2615 2.7388 27.9109 3.537 27.9109H7.63087C8.76385 27.9109 8.76545 29.6248 7.63087 29.6248Z" fill="white"/>
<path d="M22.6112 24.9402H19.8933C18.7603 24.9402 18.7587 23.2263 19.8933 23.2263H22.6112C22.9824 23.2263 23.2843 22.9244 23.2843 22.5532V19.8354C23.2843 18.7024 24.9982 18.7008 24.9982 19.8354V22.5532C24.9982 23.8694 23.9273 24.9402 22.6112 24.9402Z" fill="white"/>
<path d="M23.2843 10.05V7.33215C23.2843 6.96099 22.9823 6.65906 22.6112 6.65906H19.8933C18.7603 6.65906 18.7587 4.94519 19.8933 4.94519H22.6112C23.9273 4.94519 24.9982 6.01596 24.9982 7.33215V10.05C24.9982 11.183 23.2843 11.1846 23.2843 10.05Z" fill="white"/>
<path d="M5.00439 10.05V7.33215C5.00439 6.01596 6.07522 4.94519 7.39136 4.94519H10.1093C11.2422 4.94519 11.2438 6.65906 10.1093 6.65906H7.39136C7.02019 6.65906 6.71826 6.96099 6.71826 7.33215V10.05C6.71826 11.183 5.00439 11.1846 5.00439 10.05Z" fill="white"/>
<path d="M10.1093 24.9404H7.39136C6.07522 24.9404 5.00439 23.8696 5.00439 22.5534V19.8356C5.00439 18.7026 6.71826 18.701 6.71826 19.8356V22.5534C6.71826 22.9246 7.02025 23.2265 7.39136 23.2265H10.1093C11.2422 23.2265 11.2438 24.9404 10.1093 24.9404Z" fill="white"/>
</svg>
