<svg width="10" height="10" viewBox="0 0 10 10" fill="none" xmlns="http://www.w3.org/2000/svg">
<path d="M4.67599 0.211026L3.41086 2.89639C3.35823 3.00811 3.25646 3.08557 3.13876 3.10347L0.309804 3.53409C0.0134095 3.5792 -0.104963 3.96079 0.109524 4.17979L2.15657 6.27004C2.24175 6.35701 2.28059 6.4823 2.26049 6.6051L1.77723 9.5566C1.72659 9.86583 2.03646 10.1017 2.30156 9.95567L4.83184 8.56218C4.93712 8.50421 5.06288 8.50421 5.16816 8.56218L7.69843 9.95568C7.96354 10.1017 8.27338 9.86586 8.22277 9.5566L7.73951 6.60511C7.71941 6.4823 7.75828 6.35701 7.84343 6.27004L9.89048 4.17979C10.105 3.96079 9.98659 3.5792 9.6902 3.53409L6.86127 3.10347C6.74356 3.08554 6.6418 3.00811 6.58917 2.89639L5.32404 0.211026C5.19154 -0.0703433 4.80854 -0.0703434 4.67599 0.211026Z" fill="#C90D0C"/>
</svg>
