<svg width="14" height="14" viewBox="0 0 14 14" fill="none" xmlns="http://www.w3.org/2000/svg">
<path fill-rule="evenodd" clip-rule="evenodd" d="M14 7C14 10.866 10.866 14 7 14C3.13401 14 0 10.866 0 7C0 3.13401 3.13401 0 7 0C10.866 0 14 3.13401 14 7ZM9.75563 5.72228C9.86314 5.7359 9.95244 5.80157 9.98602 5.89167C10.0196 5.98176 9.9916 6.08067 9.91381 6.1468L8.66399 7.20908L8.95904 8.70905C8.9774 8.80242 8.93337 8.89678 8.84548 8.95246C8.75823 9.00773 8.64178 9.01581 8.54489 8.97141L7.00001 8.26322L5.45513 8.97141C5.35896 9.0155 5.24245 9.00815 5.15454 8.95246C5.06664 8.89678 5.02263 8.80241 5.04099 8.70905L5.33605 7.20908L4.0862 6.1468C4.00842 6.08068 3.98041 5.98178 4.01397 5.89169C4.04754 5.80159 4.13688 5.73592 4.24439 5.7223L5.97162 5.50345L6.74406 4.13874C6.79214 4.05377 6.89137 4 7.00001 4C7.10864 4 7.20787 4.05377 7.25596 4.13872L8.0284 5.50344L9.75563 5.72228Z" fill="#FFD12D"/>
</svg>
