<svg width="12" height="12" viewBox="0 0 12 12" fill="none" xmlns="http://www.w3.org/2000/svg">
<path d="M6 0C2.6916 0 0 2.6916 0 6C0 9.3084 2.6916 12 6 12C9.3084 12 12 9.3084 12 6C12 2.6916 9.3084 0 6 0ZM6 10.9091C3.29309 10.9091 1.09091 8.70687 1.09091 6C1.09091 3.29313 3.29309 1.09091 6 1.09091C8.70691 1.09091 10.9091 3.29313 10.9091 6C10.9091 8.70687 8.70687 10.9091 6 10.9091Z" fill="white"/>
<path d="M8.24978 3.87868L5.16418 6.96424L3.74999 5.55003C3.53701 5.33704 3.19163 5.33701 2.97861 5.54999C2.76559 5.76301 2.76559 6.10835 2.97861 6.32137L4.77847 8.1213C4.88076 8.22359 5.01948 8.28108 5.16414 8.28108C5.16418 8.28108 5.16414 8.28108 5.16418 8.28108C5.30883 8.28108 5.44756 8.22359 5.54985 8.12134L9.02116 4.6501C9.23418 4.43708 9.23418 4.09173 9.02116 3.87872C8.80814 3.6657 8.46279 3.66566 8.24978 3.87868Z" fill="white"/>
</svg>
