<svg width="39" height="39" viewBox="0 0 39 39" fill="none" xmlns="http://www.w3.org/2000/svg">
<path d="M14.4526 5.30306C15.9141 5.30306 17.1041 4.11396 17.1041 2.65153C17.1032 1.18997 15.9141 0 14.4526 0C12.991 0 11.801 1.18997 11.801 2.65153C11.801 4.11309 12.9901 5.30306 14.4526 5.30306ZM14.4526 0.974955C15.3762 0.974955 16.1283 1.72706 16.1283 2.65153C16.1283 3.57513 15.3762 4.32723 14.4526 4.32723C13.5281 4.32723 12.776 3.57513 12.776 2.65153C12.776 1.72706 13.5281 0.974955 14.4526 0.974955Z" fill="white"/>
<path d="M36.2365 33.5271C34.7279 33.5271 33.5005 34.7545 33.5005 36.2622C33.5005 37.7708 34.7279 38.9982 36.2365 38.9982C37.7442 38.9982 38.9716 37.7708 38.9716 36.2622C38.9716 34.7545 37.745 33.5271 36.2365 33.5271ZM36.2365 38.0232C35.265 38.0232 34.4754 37.2337 34.4754 36.2622C34.4754 35.2916 35.265 34.5021 36.2365 34.5021C37.2071 34.5021 37.9966 35.2916 37.9966 36.2622C37.9966 37.2337 37.2071 38.0232 36.2365 38.0232Z" fill="white"/>
<path d="M3.07864 18.0819C1.39685 18.0819 0.0292969 19.4495 0.0292969 21.1313C0.0292969 22.8131 1.39685 24.1806 3.07864 24.1806C4.76044 24.1806 6.12799 22.8131 6.12799 21.1313C6.12799 19.4495 4.76044 18.0819 3.07864 18.0819ZM3.07864 23.2048C1.93481 23.2048 1.00425 22.2742 1.00425 21.1304C1.00425 19.9866 1.93481 19.056 3.07864 19.056C4.22247 19.056 5.15303 19.9866 5.15303 21.1304C5.15303 22.2742 4.22247 23.2048 3.07864 23.2048Z" fill="white"/>
<path d="M34.2858 10.6296C34.2858 9.20371 33.1254 8.04333 31.6995 8.04333C30.2737 8.04333 29.1133 9.20371 29.1133 10.6296C29.1133 12.0554 30.2737 13.2158 31.6995 13.2158C33.1254 13.2158 34.2858 12.0554 34.2858 10.6296ZM30.0882 10.6296C30.0882 9.74167 30.8116 9.01829 31.6995 9.01829C32.5874 9.01829 33.3108 9.74167 33.3108 10.6296C33.3108 11.5175 32.5874 12.2409 31.6995 12.2409C30.8107 12.2409 30.0882 11.5175 30.0882 10.6296Z" fill="white"/>
<path d="M9.38262 11.4984C9.50275 11.3574 9.53321 11.1598 9.46009 10.9891L8.29276 8.27058L9.87009 5.76877C9.96933 5.61208 9.9702 5.41187 9.87358 5.25431C9.77695 5.09588 9.5985 5.00796 9.41395 5.02363L6.4682 5.29348L4.57574 3.02062C4.45648 2.87786 4.26497 2.81518 4.08739 2.8587C3.9072 2.90223 3.76618 3.04412 3.72527 3.22518L3.07239 6.11001L0.325109 7.20683C0.152751 7.2756 0.0343632 7.43664 0.0204353 7.62119C0.00650733 7.80573 0.0979094 7.98331 0.25721 8.0782L2.79906 9.59112L2.99405 12.5421C3.00624 12.7275 3.12288 12.8894 3.29437 12.9608C3.3553 12.9861 3.41798 12.9982 3.48066 12.9982C3.5973 12.9982 3.71134 12.9565 3.80187 12.8772L6.02599 10.9273L8.8934 11.6551C9.07272 11.6995 9.26249 11.6394 9.38262 11.4984ZM6.01641 9.91843C5.86146 9.87925 5.6952 9.91843 5.57507 10.0246L3.90111 11.4923L3.75486 9.27078C3.74442 9.11061 3.65563 8.9661 3.51809 8.88341L1.60387 7.7448L3.67216 6.9187C3.82102 6.8595 3.93157 6.73067 3.96726 6.57398L4.45909 4.40296L5.88322 6.11436C5.98594 6.23797 6.14263 6.305 6.30193 6.28846L8.51908 6.08476L7.33173 7.96764C7.24642 8.10344 7.23249 8.27232 7.29604 8.4203L8.17437 10.466L6.01641 9.91843Z" fill="white"/>
<path d="M26.8188 9.7434C26.6473 9.6137 26.4105 9.61196 26.2364 9.73818C25.1387 10.5399 23.7015 10.7601 22.3897 10.3275C21.1344 9.91228 20.1995 8.98259 19.8261 7.77695C19.7625 7.57238 19.5736 7.43311 19.3604 7.43311C19.1462 7.43311 18.9582 7.57239 18.8946 7.77608C18.5212 8.98172 17.5863 9.91054 16.331 10.3266C15.0201 10.7593 13.582 10.5399 12.4843 9.73731C12.3102 9.61109 12.0743 9.6137 11.9019 9.74253C11.7305 9.8731 11.6643 10.1003 11.74 10.3023C12.1744 11.4618 12.0064 12.7118 11.2804 13.7311C10.4944 14.8332 9.17294 15.4695 7.78276 15.4321C7.55643 15.4338 7.36928 15.5661 7.30399 15.7751C7.2387 15.984 7.32053 16.2094 7.5042 16.3287C8.62453 17.0582 9.26696 18.2125 9.26696 19.4964C9.26696 20.7804 8.62453 21.9356 7.5042 22.6642C7.32053 22.7834 7.23957 23.0089 7.30399 23.2178C7.36841 23.4259 7.55556 23.5625 7.78276 23.5608C9.17294 23.5225 10.4952 24.1597 11.2804 25.2609C12.0064 26.2802 12.1744 27.5294 11.74 28.6889C11.6643 28.8908 11.7305 29.118 11.9019 29.2486C12.0734 29.3783 12.3102 29.3809 12.4843 29.2538C13.582 28.4521 15.0201 28.231 16.3319 28.6645C17.5863 29.0797 18.5212 30.0094 18.8955 31.215C18.9591 31.4196 19.1471 31.558 19.3612 31.558C19.5754 31.558 19.7634 31.4187 19.8269 31.215C20.2013 30.0094 21.1362 29.0797 22.3906 28.6645C23.6998 28.2301 25.1396 28.4512 26.2373 29.2538C26.4114 29.38 26.6473 29.3783 26.8196 29.2486C26.9911 29.118 27.0573 28.8908 26.9815 28.6889C26.5472 27.5294 26.7152 26.2802 27.4412 25.2609C28.2264 24.1588 29.5269 23.5225 30.9388 23.5608C31.1451 23.5634 31.3523 23.4259 31.4176 23.2178C31.482 23.0098 31.4011 22.7834 31.2174 22.6642C30.0962 21.9347 29.4538 20.7804 29.4538 19.4964C29.4538 18.2125 30.0962 17.0573 31.2174 16.3278C31.4011 16.2086 31.482 15.9831 31.4176 15.7742C31.3523 15.5661 31.1451 15.433 30.9388 15.4312C29.5434 15.4617 28.2264 14.8323 27.4412 13.7303C26.7152 12.7109 26.5472 11.4618 26.9815 10.3014C27.0564 10.1003 26.9902 9.87311 26.8188 9.7434ZM29.748 16.2991C28.9393 17.1705 28.4797 18.303 28.4797 19.4956C28.4797 20.6881 28.9402 21.8207 29.748 22.692C28.498 22.9506 27.3872 23.6548 26.6473 24.6942C25.9648 25.6517 25.6723 26.772 25.7951 27.8871C24.6356 27.3936 23.3124 27.3318 22.0841 27.7383C20.9081 28.1274 19.9575 28.8839 19.3604 29.8806C18.7641 28.8839 17.8135 28.1265 16.6374 27.7383C16.0951 27.559 15.5337 27.471 14.9774 27.471C14.2732 27.471 13.5742 27.6121 12.9274 27.888C13.0493 26.7729 12.7576 25.6526 12.0752 24.695C11.3344 23.6565 10.2245 22.9514 8.9736 22.6929C9.78229 21.8215 10.2419 20.689 10.2419 19.4964C10.2419 18.3039 9.78229 17.1713 8.9736 16.3C10.2236 16.0414 11.3344 15.3372 12.0752 14.2978C12.7576 13.3394 13.0501 12.2191 12.9274 11.104C14.086 11.5967 15.4074 11.6602 16.6374 11.2537C17.8135 10.8646 18.7632 10.1081 19.3604 9.11055C19.9575 10.1081 20.9081 10.8646 22.0841 11.2537C23.3141 11.6611 24.6364 11.5976 25.7951 11.104C25.6732 12.2191 25.9648 13.3394 26.6473 14.2978C27.3872 15.3363 28.498 16.0406 29.748 16.2991Z" fill="#FFD12D"/>
<path d="M19.3605 12.9801C15.768 12.9801 12.8457 15.9032 12.8457 19.4958C12.8457 23.0883 15.768 26.0114 19.3605 26.0114C22.953 26.0114 25.8762 23.0883 25.8762 19.4958C25.8762 15.9032 22.953 12.9801 19.3605 12.9801ZM19.3605 25.0365C16.3059 25.0365 13.8207 22.5512 13.8207 19.4958C13.8207 16.4403 16.3059 13.9551 19.3605 13.9551C22.4159 13.9551 24.9012 16.4403 24.9012 19.4958C24.9012 22.5503 22.4159 25.0365 19.3605 25.0365Z" fill="#FFD12D"/>
<path d="M6.51696 38.751C7.61552 38.395 8.50256 37.689 9.10233 36.7976C12.0124 38.2575 15.1558 39 18.32 39C20.4527 39 22.595 38.6649 24.6798 37.9894C29.9098 36.2954 34.1683 32.6619 36.6718 27.7602C41.8364 17.6485 37.8104 5.22042 27.6987 0.0557678C27.4593 -0.0661016 27.1651 0.0296529 27.0424 0.268169C26.9196 0.508425 27.0154 0.801782 27.2548 0.924522C36.8885 5.84369 40.7231 17.6833 35.8039 27.3162C30.9109 36.8986 19.1722 40.741 9.5663 35.9393C10.0129 34.8773 10.0999 33.6586 9.71864 32.4791C8.87252 29.8676 6.05907 28.4304 3.44759 29.2774C2.18189 29.6866 1.15209 30.5649 0.547097 31.7496C-0.0578979 32.9335 -0.164969 34.2828 0.245035 35.5485C0.926633 37.6525 2.88438 38.993 4.98575 38.993C5.49325 38.993 6.00859 38.9156 6.51696 38.751ZM1.17298 35.2482C0.843065 34.2306 0.930115 33.1451 1.41585 32.1927C1.90246 31.2404 2.7303 30.5344 3.74791 30.2045C4.15617 30.0722 4.5714 30.0095 4.97879 30.0095C6.66842 30.0095 8.24228 31.0881 8.79069 32.7803C9.47142 34.8808 8.3154 37.1432 6.21489 37.824C4.11613 38.5029 1.85371 37.3487 1.17298 35.2482Z" fill="white"/>
</svg>
