<svg width="36" height="33" viewBox="0 0 36 33" fill="none" xmlns="http://www.w3.org/2000/svg">
<g clip-path="url(#clip0_1142_3614)">
<path d="M10.6364 16.499C10.6364 20.5951 13.9377 23.924 18 23.924C22.0623 23.924 25.3636 20.5951 25.3636 16.499C25.3636 12.4029 22.0623 9.07401 18 9.07401C13.9377 9.07401 10.6364 12.4029 10.6364 16.499ZM18 10.724C21.1582 10.724 23.7273 13.3145 23.7273 16.499C23.7273 19.6835 21.1582 22.274 18 22.274C14.8418 22.274 12.2727 19.6835 12.2727 16.499C12.2727 13.3145 14.8418 10.724 18 10.724ZM33.5455 3.29901H18C17.55 3.29901 17.1818 3.67026 17.1818 4.12401C17.1818 4.57776 17.55 4.94901 18 4.94901H33.5455C33.9955 4.94901 34.3636 5.32026 34.3636 5.77401V27.224C34.3636 27.6778 33.9955 28.049 33.5455 28.049H25.7032L27.5809 26.1556C27.9 25.8339 27.9 25.31 27.5809 24.9883C27.2618 24.6665 26.7423 24.6665 26.4232 24.9883L23.1505 28.2883C22.8314 28.61 22.8314 29.1339 23.1505 29.4556L26.4232 32.7556C26.5827 32.9165 26.7914 32.999 27 32.999C27.2086 32.999 27.4173 32.9206 27.5768 32.7556C27.8959 32.4339 27.8959 31.91 27.5768 31.5883L25.7032 29.699H33.5455C34.8995 29.699 36 28.5894 36 27.224V5.77401C36 4.40864 34.8995 3.29901 33.5455 3.29901ZM18 28.049H2.45455C2.00455 28.049 1.63636 27.6778 1.63636 27.224V5.77401C1.63636 5.32026 2.00455 4.94901 2.45455 4.94901H10.2968L8.41909 6.84239C8.1 7.16414 8.1 7.68801 8.41909 8.00976C8.58273 8.16651 8.79136 8.24901 9 8.24901C9.20864 8.24901 9.41727 8.17064 9.57682 8.00564L12.8495 4.70564C13.1686 4.38389 13.1686 3.86001 12.8495 3.53826L9.57682 0.238261C9.25773 -0.0834893 8.73818 -0.0834893 8.41909 0.238261C8.1 0.560011 8.1 1.08389 8.41909 1.40564L10.2968 3.29901H2.45455C1.10045 3.29901 0 4.40864 0 5.77401V27.224C0 28.5894 1.10045 29.699 2.45455 29.699H18C18.45 29.699 18.8182 29.3319 18.8182 28.874C18.8182 28.4161 18.45 28.049 18 28.049Z" fill="#FFD12D"/>
</g>
<defs>
<clipPath id="clip0_1142_3614">
<rect width="36" height="33" fill="white"/>
</clipPath>
</defs>
</svg>
