<svg width="12" height="12" viewBox="0 0 12 12" fill="none" xmlns="http://www.w3.org/2000/svg">
<path d="M6 1.2C3.34903 1.2 1.2 3.34903 1.2 6C1.2 8.65097 3.34903 10.8 6 10.8C8.65097 10.8 10.8 8.65097 10.8 6C10.8 3.34903 8.65097 1.2 6 1.2ZM0 6C0 2.68629 2.68629 0 6 0C9.31371 0 12 2.68629 12 6C12 9.31371 9.31371 12 6 12C2.68629 12 0 9.31371 0 6Z" fill="#FFD12D"/>
<path d="M6 7.2C5.66863 7.2 5.4 6.93137 5.4 6.6L5.4 3C5.4 2.66863 5.66863 2.4 6 2.4C6.33137 2.4 6.6 2.66863 6.6 3L6.6 6.6C6.6 6.93137 6.33137 7.2 6 7.2Z" fill="#FFD12D"/>
<path d="M5.1 8.7C5.1 8.20294 5.50294 7.8 6 7.8C6.49706 7.8 6.9 8.20294 6.9 8.7C6.9 9.19706 6.49706 9.6 6 9.6C5.50294 9.6 5.1 9.19706 5.1 8.7Z" fill="#FFD12D"/>
</svg>
